<?xml version="1.0" encoding="UTF-8" standalone="no"?>
<!-- Created with Inkscape (http://www.inkscape.org/) -->

<svg
   xmlns:dc="http://purl.org/dc/elements/1.1/"
   xmlns:cc="http://creativecommons.org/ns#"
   xmlns:rdf="http://www.w3.org/1999/02/22-rdf-syntax-ns#"
   xmlns:svg="http://www.w3.org/2000/svg"
   xmlns="http://www.w3.org/2000/svg"
   xmlns:xlink="http://www.w3.org/1999/xlink"
   xmlns:sodipodi="http://sodipodi.sourceforge.net/DTD/sodipodi-0.dtd"
   xmlns:inkscape="http://www.inkscape.org/namespaces/inkscape"
   width="1920px"
   height="1080px"
   id="svg3011"
   version="1.1"
   inkscape:version="0.48.5 r10040"
   inkscape:export-filename="/home/pablo/dev/videos/WISIT2014/Sobre Impresos/00 - Intro.png"
   inkscape:export-xdpi="300"
   inkscape:export-ydpi="300"
   sodipodi:docname="00 - Intro.svg">
  <defs
     id="defs3013">
    <linearGradient
       inkscape:collect="always"
       xlink:href="#linearGradient3842"
       id="linearGradient3022"
       gradientUnits="userSpaceOnUse"
       x1="291.92084"
       y1="289.26755"
       x2="268.91547"
       y2="388.4111" />
    <linearGradient
       id="linearGradient3842">
      <stop
         style="stop-color:#ffff00;stop-opacity:1;"
         offset="0"
         id="stop3844" />
      <stop
         style="stop-color:#ff7800;stop-opacity:1;"
         offset="1"
         id="stop3846" />
    </linearGradient>
    <linearGradient
       inkscape:collect="always"
       xlink:href="#linearGradient8522"
       id="linearGradient16879"
       gradientUnits="userSpaceOnUse"
       gradientTransform="translate(1.8359375e-5,4627.5601)"
       x1="1500.0001"
       y1="911.22015"
       x2="1551.4762"
       y2="-2738.78" />
    <linearGradient
       inkscape:collect="always"
       id="linearGradient8522">
      <stop
         style="stop-color:#0d6baf;stop-opacity:1;"
         offset="0"
         id="stop8524" />
      <stop
         style="stop-color:#0d6baf;stop-opacity:0;"
         offset="1"
         id="stop8526" />
    </linearGradient>
    <linearGradient
       y2="-6380.3433"
       x2="1535.2303"
       y1="911.22015"
       x1="1500.0001"
       gradientTransform="matrix(0.58033785,0,0,0.03920497,39.890877,-793.15229)"
       gradientUnits="userSpaceOnUse"
       id="linearGradient7817"
       xlink:href="#linearGradient8522"
       inkscape:collect="always" />
  </defs>
  <sodipodi:namedview
     id="base"
     pagecolor="#00ff00"
     bordercolor="#666666"
     borderopacity="1.0"
     inkscape:pageopacity="0"
     inkscape:pageshadow="2"
     inkscape:zoom="0.49635417"
     inkscape:cx="824.13063"
     inkscape:cy="315.85508"
     inkscape:document-units="px"
     inkscape:current-layer="layer1"
     showgrid="false"
     inkscape:window-width="1600"
     inkscape:window-height="850"
     inkscape:window-x="-8"
     inkscape:window-y="26"
     inkscape:window-maximized="1" />
  <metadata
     id="metadata3016">
    <rdf:RDF>
      <cc:Work
         rdf:about="">
        <dc:format>image/svg+xml</dc:format>
        <dc:type
           rdf:resource="http://purl.org/dc/dcmitype/StillImage" />
        <dc:title />
      </cc:Work>
    </rdf:RDF>
  </metadata>
  <g
     inkscape:groupmode="layer"
     id="layer2"
     inkscape:label="Logo"
     style="display:none">
    <g
       style="display:inline"
       transform="matrix(0.49964243,0,0,0.49964243,1563.3861,-269.80708)"
       id="g3019">
      <path
         sodipodi:type="arc"
         style="fill:url(#linearGradient3022);fill-opacity:1;stroke:none"
         id="path3072"
         sodipodi:cx="280.97513"
         sodipodi:cy="327.14261"
         sodipodi:rx="48.094841"
         sodipodi:ry="48.094841"
         d="m 329.06997,327.14261 c 0,26.56205 -21.53279,48.09484 -48.09484,48.09484 -26.56205,0 -48.09484,-21.53279 -48.09484,-48.09484 0,-26.56205 21.53279,-48.09484 48.09484,-48.09484 26.21321,0 47.59876,20.99126 48.08651,47.19993"
         sodipodi:start="0"
         sodipodi:end="6.2645771"
         sodipodi:open="true"
         transform="matrix(1.187333,0,0,1.187333,5.4722777,328.93047)" />
      <path
         sodipodi:nodetypes="cccccccccssccccccccccccc"
         inkscape:connector-curvature="0"
         id="path3002"
         style="font-size:478.55245972px;font-style:normal;font-variant:normal;font-weight:bold;font-stretch:normal;line-height:125%;letter-spacing:0px;word-spacing:0px;fill:#3771c8;fill-opacity:1;stroke:none;font-family:Bahamas;-inkscape-font-specification:Bahamas Bold"
         d="m 277.89427,893.41968 0,-93.50027 c -8e-5,-7.97204 -2.43981,-14.19164 -7.3192,-18.65882 -4.87955,-4.46705 -10.6868,-6.70061 -17.42177,-6.70068 -12.16435,7e-5 -19.62101,7.86907 -22.36995,23.60701 -5e-5,5.97911 1.95861,11.13348 5.87598,15.46311 3.91727,4.26098 9.41525,6.49454 16.49397,6.70068 5.1543,-0.41232 10.23994,-1.30574 15.25694,-2.68027 l -0.41235,31.64783 c -5.49807,1.3745 -10.72116,2.06175 -15.66929,2.06175 -7.49107,0 -14.60408,-1.30578 -21.33909,-3.91732 -6.73507,-2.61155 -12.67978,-6.28833 -17.83411,-11.03035 -5.15438,-4.81073 -9.20915,-10.48053 -12.16431,-17.00942 -2.88646,-6.59756 -4.36404,-13.67622 -4.43276,-21.23601 0.54979,-5.84156 1.13395,-9.96505 1.75248,-12.37049 1.58066,-6.73497 4.53584,-13.26383 8.86551,-19.5866 4.39839,-6.3226 10.61798,-11.61442 18.65882,-15.87546 8.04077,-4.26084 17.7997,-6.39131 29.27683,-6.39142 3.09255,1.1e-4 5.46355,0.0688 7.11302,0.20618 7.51803,0.89942 11.30901,1.71957 15.65816,4.33195 13.43874,9.05983 13.43874,34.47417 13.43874,54.41853 0,20.84203 2.71585,48.46871 20.34443,53.38937 0,2.04456 0,5.02812 0,37.12744 l -33.77206,0.003" />
      <path
         d="m 311.68326,701.88315 0,93.50027 c 9e-5,7.97203 2.43983,14.19163 7.31921,18.65882 4.87955,4.46705 10.6868,6.70061 17.42177,6.70068 12.16436,-7e-5 19.62101,-7.86907 22.36996,-23.60701 4e-5,-5.97912 -1.95861,-11.13348 -5.87597,-15.46311 -3.91728,-4.26098 -9.41526,-6.49454 -16.49399,-6.70068 -5.1543,0.41232 -10.23994,1.30574 -15.25693,2.68027 l 0.41235,-31.64783 c 5.49806,-1.3745 10.72115,-2.06175 15.66928,-2.06175 7.49107,0 14.60409,1.30577 21.33909,3.91732 6.73508,2.61154 12.67978,6.28833 17.83412,11.03036 5.15439,4.81072 9.20915,10.48052 12.16431,17.00942 2.88646,6.59756 4.36404,13.67622 4.43276,21.236 -0.54979,5.84156 -1.13395,9.96505 -1.75249,12.37049 -1.58066,6.73497 -4.53583,13.26383 -8.86551,19.5866 -4.39838,6.3226 -10.61797,11.61442 -18.65882,15.87546 -8.04077,4.26085 -17.7997,6.39131 -29.27682,6.39142 -3.09255,-1.1e-4 -5.46356,-0.0688 -7.11303,-0.20617 -7.51803,-0.89943 -11.30901,-1.71958 -15.65816,-4.33196 -13.43874,-9.05983 -13.43874,-34.47418 -13.43874,-54.41853 0,-20.84203 -2.71584,-48.46871 -20.34443,-53.38937 0,-2.04455 0,-5.02812 0,-37.12745 l 33.77207,-0.003"
         style="font-size:478.55245972px;font-style:normal;font-variant:normal;font-weight:bold;font-stretch:normal;line-height:125%;letter-spacing:0px;word-spacing:0px;fill:#3771c8;fill-opacity:1;stroke:none;font-family:Bahamas;-inkscape-font-specification:Bahamas Bold"
         id="path3039"
         inkscape:connector-curvature="0"
         sodipodi:nodetypes="cccccccccssccccccccccccc" />
      <path
         inkscape:connector-curvature="0"
         id="path3807"
         style="font-size:210.53939819px;font-style:normal;font-variant:normal;font-weight:bold;font-stretch:normal;text-align:start;line-height:125%;letter-spacing:0px;word-spacing:0px;writing-mode:lr-tb;text-anchor:start;fill:#333333;fill-opacity:1;stroke:none;font-family:Bahamas;-inkscape-font-specification:Bahamas Bold"
         d="m 513.63881,848.77577 -33.61639,0 0,-50.06479 c -9e-5,-6.85344 -1.95334,-12.5761 -5.85974,-17.168 -3.90657,-4.59177 -9.90338,-6.88769 -17.99043,-6.88777 -2.87853,8e-5 -6.0654,0.65116 -9.56063,1.95325 -3.49533,1.30223 -6.59653,3.66669 -9.30362,7.09337 -2.70717,3.42681 -4.06073,7.98438 -4.0607,13.67272 -3e-5,8.29277 2.41582,14.20391 7.24758,17.73342 4.83166,3.52958 9.78331,5.29436 14.85495,5.29433 3.49522,3e-5 6.42508,-0.17131 8.78961,-0.51401 2.36438,-0.34265 4.91731,-1.09653 7.65878,-2.26166 l 0,27.75666 c -2.12466,1.78191 -5.12306,3.22114 -8.99521,4.3177 -3.87229,1.09656 -8.10432,1.64484 -12.6961,1.64484 -9.45788,0 -18.07614,-2.41585 -25.85482,-7.24757 -7.77874,-4.8317 -13.87834,-11.37679 -18.29883,-19.63527 -4.42052,-8.25843 -6.63077,-17.2879 -6.63076,-27.08844 0.4112,-15.90004 5.73979,-28.61326 15.98578,-38.1397 10.24594,-9.52626 22.46229,-14.63211 36.64907,-15.31757 7.47024,1.1e-4 14.85488,0.90819 22.15392,2.72427 7.29889,1.81627 13.91251,4.6262 19.84088,8.4298 5.92816,3.80378 10.69134,8.75542 14.28954,14.85495 3.59796,6.09968 5.397,13.36438 5.39712,21.79412 z" />
      <path
         inkscape:connector-curvature="0"
         id="path3809"
         style="font-size:210.53939819px;font-style:normal;font-variant:normal;font-weight:bold;font-stretch:normal;text-align:start;line-height:125%;letter-spacing:0px;word-spacing:0px;writing-mode:lr-tb;text-anchor:start;fill:#333333;fill-opacity:1;stroke:none;font-family:Bahamas;-inkscape-font-specification:Bahamas Bold"
         d="m 551.8999,746.48734 0,17.27081 c 1.57627,-5.20856 4.3862,-9.42346 8.4298,-12.6447 4.04352,-3.22104 9.56058,-4.83161 16.5512,-4.83171 1.98745,10e-5 3.46095,0.0686 4.4205,0.2056 l 0,30.32672 c -6.92209,0.34275 -12.19927,1.14803 -15.83157,2.41586 -3.6324,1.26797 -6.15106,3.15268 -7.55598,5.65413 -1.40501,2.50159 -2.10749,5.97974 -2.10745,10.43445 l 0,53.45727 -33.6164,0 0,-102.28843 z" />
      <path
         style="font-size:209.3260498px;font-style:normal;font-variant:normal;font-weight:bold;font-stretch:normal;text-align:start;line-height:125%;letter-spacing:0px;word-spacing:0px;writing-mode:lr-tb;text-anchor:start;fill:#333333;fill-opacity:1;stroke:none;font-family:Bahamas;-inkscape-font-specification:Bahamas Bold"
         id="path3021"
         d="m 134.32867,746.40472 0,58.74172 c -4e-5,4.38938 1.08315,7.88714 3.24957,10.49327 2.16634,2.6062 4.77277,4.01216 7.81928,4.21788 3.38492,-0.20572 6.27907,-1.62882 8.68246,-4.26931 2.40326,-2.64043 3.60493,-6.25821 3.60499,-10.85334 l 0,-58.33022 31.98797,0 0,60.9021 c -1e-4,6.92697 -1.59104,13.78531 -4.77281,20.57504 -3.18196,6.78977 -8.00554,12.39646 -14.47075,16.82009 -6.46536,4.42363 -14.40311,6.63544 -23.81327,6.63545 -9.07176,-0.20576 -16.90796,-2.19467 -23.50861,-5.96676 -6.60072,-3.77209 -11.64431,-9.05301 -15.13082,-15.84278 -3.48653,-6.78973 -5.22979,-14.50537 -5.22978,-23.14692 l 0,-59.97622 z"
         inkscape:connector-curvature="0" />
      <path
         style="font-size:49.98757553px;font-style:normal;font-variant:normal;font-weight:normal;font-stretch:normal;text-align:start;line-height:125%;letter-spacing:0px;word-spacing:0px;writing-mode:lr-tb;text-anchor:start;fill:#666666;fill-opacity:1;stroke:none;font-family:'Ænigma Scrawl (BRK)';-inkscape-font-specification:'Ænigma Scrawl (BRK)'"
         id="path3000"
         d="m 323.98431,737.08697 c 0,1.1915 0.25911,2.25408 0.77734,3.18771 0.51822,0.93359 1.45144,1.40038 2.79964,1.40042 0.67408,-4e-5 1.36124,-0.15544 2.06146,-0.46641 0.70019,-0.31097 1.3355,-0.72595 1.90597,-1.24495 0.57044,-0.51905 1.0242,-1.11561 1.36126,-1.78967 0.33703,-0.67412 0.50555,-1.37353 0.50557,-2.09824 -2e-5,-0.62349 -0.18159,-1.10373 -0.54473,-1.44076 -0.36319,-0.33708 -0.75205,-0.66107 -1.16663,-0.972 -0.41459,-0.31095 -0.80347,-0.63494 -1.16661,-0.97197 -0.36317,-0.33707 -0.54475,-0.81653 -0.54473,-1.43839 l 0,-0.54355 c -2e-5,-0.51904 0.0518,-1.42653 0.15544,-2.7225 0.10362,-1.29598 0.20728,-2.66989 0.31094,-4.12171 0.10362,-1.45185 0.19422,-2.82614 0.27177,-4.1229 0.0775,-1.29677 0.14237,-2.20467 0.19463,-2.72368 0.36235,-0.98426 0.79,-1.55431 1.28292,-1.71016 0.4929,-0.15588 1.20616,-0.31135 2.13978,-0.46643 0.15497,-0.0523 0.50476,-0.14314 1.04912,-0.27295 0.54433,-0.12977 1.12782,-0.25952 1.75052,-0.38927 0.62264,-0.12976 1.20615,-0.25911 1.75051,-0.38808 0.54432,-0.12899 0.89402,-0.19345 1.04913,-0.19345 1.29594,-0.2595 2.87753,-0.58389 4.74478,-0.97316 1.86718,-0.38926 3.65607,-0.9336 5.36665,-1.63303 1.71053,-0.69941 3.16236,-1.63261 4.35553,-2.79962 1.19308,-1.167 1.78964,-2.65801 1.78967,-4.47302 -3e-5,-1.29595 -0.33708,-2.57927 -1.01114,-3.84994 -0.67414,-1.27064 -1.51676,-2.47641 -2.52787,-3.61733 -1.01117,-1.14088 -2.10024,-2.17774 -3.26723,-3.11058 -1.16704,-0.93279 -2.21734,-1.71013 -3.15092,-2.33204 l -19.36602,-12.523 c -0.51746,-0.31169 -1.11323,-0.54509 -1.7873,-0.7002 -0.67411,-0.15498 -1.29678,-0.23257 -1.86801,-0.23262 -1.24377,5e-5 -2.29368,0.34975 -3.14974,1.04912 -0.85608,0.69946 -1.59506,1.56779 -2.21693,2.60501 -0.62188,1.03728 -1.12745,2.12636 -1.51671,3.26723 -0.38927,1.14094 -0.73898,2.15208 -1.04912,3.03344 -0.15665,0.41461 -0.24764,0.7386 -0.27296,0.97197 -0.0254,0.23343 -0.038,0.53131 -0.038,0.89366 0,0.41619 0.10362,0.97398 0.31093,1.67337 0.2073,0.69944 0.46641,1.39924 0.77735,2.09943 0.31094,0.70023 0.62187,1.29679 0.93281,1.78968 0.31094,0.49293 0.57005,0.73939 0.77735,0.73936 l 2.17894,0 c 0.25952,3e-5 0.42804,-0.19461 0.50557,-0.58389 0.0775,-0.38925 0.11623,-0.66142 0.11623,-0.81651 0,-0.77851 -0.10362,-1.5436 -0.31094,-2.29525 -0.20729,-0.75161 -0.31093,-1.49059 -0.31093,-2.21693 0,-0.51741 0.0775,-1.12623 0.23261,-1.82647 0.15513,-0.70017 0.38847,-1.38733 0.7002,-2.06145 0.31173,-0.67407 0.71366,-1.24452 1.20579,-1.71135 0.49211,-0.46678 1.0491,-0.70017 1.67099,-0.7002 0.67408,3e-5 1.2837,0.19467 1.82885,0.5839 0.54512,0.38929 1.0768,0.81693 1.59504,1.28291 0.51822,0.46605 1.04951,0.91979 1.59386,1.36126 0.54432,0.44151 1.15354,0.71368 1.82765,0.81651 3.21539,1.86723 6.40429,3.83769 9.56671,5.91138 3.16236,2.07375 6.01422,4.48491 8.55556,7.2335 0.25949,0.31016 0.53165,0.67291 0.81651,1.08828 0.2848,0.41539 0.42721,0.83037 0.42724,1.24494 -3e-5,0.77697 -0.37585,1.45066 -1.12744,2.02109 -0.75167,0.57047 -1.69793,1.07604 -2.83881,1.51673 -1.14092,0.4407 -2.41118,0.81691 -3.81078,1.12863 -1.39964,0.31174 -2.76049,0.57126 -4.08255,0.77854 -1.32209,0.2073 -2.52788,0.38849 -3.61733,0.54355 -1.0895,0.15513 -1.86762,0.28483 -2.33442,0.38926 l -0.15435,0.0783 c -0.57124,0 -1.02539,-0.27217 -1.36242,-0.81651 -0.33706,-0.54433 -0.55702,-1.02458 -0.65986,-1.44077 -0.1044,-2.9543 -0.27337,-5.90941 -0.50676,-8.86531 -0.23341,-2.95587 -0.37544,-5.93788 -0.42605,-8.94602 -0.25953,-1.03644 -0.90831,-1.55466 -1.94633,-1.55469 -0.77698,3e-5 -1.3858,0.24648 -1.82647,0.73937 -0.44072,0.49293 -0.75166,1.10216 -0.93283,1.82766 -0.18119,0.72555 -0.28483,1.47717 -0.31094,2.25489 -0.0261,0.77777 -0.0392,1.45227 -0.0392,2.02348 l 0,1.01114 c 0,0.0507 0.0257,0.20573 0.0772,0.46523 0.0515,0.25952 0.0902,0.51904 0.11623,0.77852 0.0261,0.25953 0.0523,0.51905 0.0783,0.77855 0.0261,0.25953 0.0392,0.41459 0.0392,0.46522 0,0.31175 0.0257,1.025 0.0772,2.13977 0.0515,1.11481 0.0903,2.32019 0.11623,3.61615 0.0261,1.29598 0.0523,2.51442 0.0783,3.65531 0.0261,1.1409 0.0392,1.84112 0.0392,2.10062 0.0523,0.2073 0.1041,0.63493 0.15544,1.28291 0.0515,0.648 0.10332,1.07564 0.15544,1.28293 l 0,12.44467 c -0.36236,2.02228 -0.60843,4.10944 -0.73818,6.2615 -0.12977,2.15203 -0.19463,4.2653 -0.19463,6.33983 z"
         inkscape:connector-curvature="0" />
      <path
         style="font-size:49.98757553px;font-style:normal;font-variant:normal;font-weight:normal;font-stretch:normal;text-align:start;line-height:125%;letter-spacing:0px;word-spacing:0px;writing-mode:lr-tb;text-anchor:start;fill:#666666;fill-opacity:1;stroke:none;font-family:'Ænigma Scrawl (BRK)';-inkscape-font-specification:'Ænigma Scrawl (BRK)'"
         id="path3003"
         d="m 357.80068,710.79721 c 0,0.72633 0.324,1.32289 0.97198,1.78968 0.64798,0.46681 1.30902,0.7002 1.98312,0.7002 l 0.77854,0 c 1.13932,-0.98582 1.94237,-2.04918 2.40918,-3.19008 0.46679,-1.14089 0.7002,-2.46297 0.7002,-3.96625 0,-0.88138 -0.0518,-1.73705 -0.15544,-2.56703 -0.10362,-0.82995 -0.15544,-1.68562 -0.15544,-2.56703 l 0,-2.1006 c 0.41458,-0.98424 0.89404,-1.85217 1.4384,-2.60383 0.54433,-0.75161 1.41306,-1.12743 2.60618,-1.12745 1.19311,2e-5 2.39889,0.1167 3.61735,0.35011 1.21842,0.23342 2.42419,0.35013 3.61733,0.3501 0.62186,3e-5 1.46407,-0.0261 2.52666,-0.0783 1.06255,-0.0521 2.09941,-0.20806 3.11058,-0.46759 1.01113,-0.2595 1.87985,-0.66141 2.60619,-1.20577 0.72628,-0.54433 1.08944,-1.33473 1.08947,-2.37121 -3e-5,-0.77851 -0.25953,-1.3363 -0.77853,-1.67338 -0.51904,-0.33701 -1.14092,-0.50554 -1.86563,-0.50557 -0.93364,3e-5 -1.84113,0.10363 -2.72249,0.31094 -0.88143,0.20733 -1.78891,0.31097 -2.7225,0.31094 -1.5555,3e-5 -2.95552,-0.20727 -4.20005,-0.62188 -1.24456,-0.41455 -2.41117,-0.97194 -3.49984,-1.67218 -1.08868,-0.70018 -2.12595,-1.52975 -3.11176,-2.4887 -0.98584,-0.95889 -1.97087,-1.95659 -2.95511,-2.99307 -0.20729,-0.20727 -0.42765,-0.32397 -0.66104,-0.3501 -0.2334,-0.0261 -0.47986,-0.0392 -0.73936,-0.0392 -0.77696,4e-5 -1.33397,0.23343 -1.67101,0.70021 -0.33705,0.46683 -0.71365,0.98507 -1.12981,1.55469 l 0,13.06656 c -0.4146,1.76278 -0.69943,3.38314 -0.85449,4.86108 -0.15513,1.47795 -0.23261,3.09832 -0.23261,4.86108 z"
         inkscape:connector-curvature="0" />
      <path
         style="font-size:49.98757553px;font-style:normal;font-variant:normal;font-weight:normal;font-stretch:normal;text-align:start;line-height:125%;letter-spacing:0px;word-spacing:0px;writing-mode:lr-tb;text-anchor:start;fill:#666666;fill-opacity:1;stroke:none;font-family:'Ænigma Scrawl (BRK)';-inkscape-font-specification:'Ænigma Scrawl (BRK)'"
         id="path3005"
         d="m 386.51148,699.67462 c 0,1.91945 0.38887,3.81239 1.16662,5.67879 0.77774,1.86644 1.84071,3.55128 3.18891,5.05454 1.34818,1.50326 2.90367,2.7217 4.66645,3.65531 1.76276,0.9336 3.65529,1.40042 5.67759,1.40042 l 10.88761,0 c 0.98579,0 1.97123,-0.19425 2.95629,-0.58272 0.985,-0.38848 1.89211,-0.81612 2.72131,-1.28293 0.9858,-0.62345 1.95816,-1.24612 2.91713,-1.86801 0.95888,-0.62186 1.78846,-1.32167 2.48869,-2.09942 0.70017,-0.77773 1.27062,-1.64607 1.71136,-2.60501 0.44065,-0.95891 0.66099,-2.06104 0.66104,-3.30639 -5e-5,-1.14089 -0.16857,-2.15203 -0.50557,-3.03344 -0.3371,-0.88136 -0.79084,-1.71093 -1.36126,-2.48868 -0.57048,-0.77774 -1.20541,-1.52936 -1.90479,-2.25491 -0.69946,-0.7255 -1.41231,-1.50364 -2.1386,-2.33442 -1.14092,-1.29593 -2.28183,-2.52704 -3.4227,-3.69327 -1.14092,-1.16621 -2.34631,-2.20305 -3.61614,-3.11058 -1.26989,-0.90747 -2.65685,-1.62072 -4.16089,-2.13978 -1.50408,-0.51899 -3.18972,-0.7785 -5.0569,-0.77853 -2.33245,3e-5 -4.52287,0.36318 -6.57126,1.08946 -2.0484,0.72635 -3.83729,1.76361 -5.36665,3.11176 -1.52939,1.34822 -2.73477,2.99431 -3.61615,4.93823 -0.88139,1.94399 -1.32209,4.16051 -1.32209,6.64958 z m 5.28834,0.0783 c -1e-5,-1.34817 0.29827,-2.61844 0.89483,-3.81078 0.59655,-1.1923 1.3743,-2.24221 2.33324,-3.14974 0.95891,-0.90747 2.06065,-1.63339 3.30521,-2.17775 1.24453,-0.54432 2.54089,-0.81649 3.8891,-0.81651 1.65832,2e-5 3.18769,0.24609 4.58813,0.73818 1.40039,0.49214 2.7098,1.14013 3.92827,1.94396 1.2184,0.80387 2.37196,1.73748 3.46068,2.80082 1.08865,1.06339 2.17733,2.16472 3.26605,3.30403 0.51898,0.57124 1.16737,1.32368 1.94513,2.25727 0.77772,0.93362 1.16658,1.89254 1.16663,2.87677 -5e-5,0.8814 -0.27221,1.62038 -0.81653,2.21692 -0.54437,0.59657 -1.2058,1.17968 -1.9843,1.74933 -0.93206,0.6741 -1.99463,1.21884 -3.18772,1.63421 -1.19315,0.41539 -2.42463,0.72672 -3.69447,0.934 -1.26989,0.20729 -2.5532,0.34971 -3.84995,0.42724 -1.29679,0.0775 -2.48951,0.11638 -3.57816,0.11623 -1.45107,10e-6 -2.8768,-0.28522 -4.27719,-0.85567 -1.40042,-0.57044 -2.64497,-1.36124 -3.73364,-2.3724 -1.08869,-1.01112 -1.97008,-2.1908 -2.64417,-3.539 -0.67411,-1.34817 -1.01115,-2.77391 -1.01114,-4.27719 z"
         inkscape:connector-curvature="0" />
      <path
         style="font-size:49.98757553px;font-style:normal;font-variant:normal;font-weight:normal;font-stretch:normal;text-align:start;line-height:125%;letter-spacing:0px;word-spacing:0px;writing-mode:lr-tb;text-anchor:start;fill:#666666;fill-opacity:1;stroke:none;font-family:'Ænigma Scrawl (BRK)';-inkscape-font-specification:'Ænigma Scrawl (BRK)'"
         id="path3007"
         d="m 427.07118,719.19731 c 0,2.2818 0.324,4.53748 0.97198,6.76707 0.64799,2.22957 1.61996,4.23881 2.91595,6.0277 1.29597,1.78887 2.91632,3.22766 4.86108,4.31635 1.94473,1.08867 4.18777,1.633 6.72909,1.63303 1.55547,-3e-5 3.00691,-0.2722 4.35433,-0.81651 1.34738,-0.54437 2.55276,-1.28333 3.61615,-2.21693 1.06334,-0.93362 1.93207,-2.04842 2.60619,-3.34437 0.67406,-1.29598 1.14088,-2.69561 1.40041,-4.19886 -3e-5,-0.15667 -3e-5,-0.44229 0,-0.85685 -3e-5,-0.4146 0.0124,-0.8553 0.0392,-1.3221 0.0261,-0.46681 0.0392,-0.93361 0.0392,-1.4004 -2e-5,-0.4146 -2e-5,-0.69943 0,-0.85449 -2e-5,-5.34056 -0.51866,-10.51297 -1.55588,-15.51728 -1.03728,-5.00427 -2.41198,-10.02082 -4.1241,-15.04967 -0.25794,-0.62184 -0.68518,-1.24412 -1.28173,-1.86681 -0.59657,-0.62265 -1.258,-0.93398 -1.9843,-0.93401 -0.82919,3e-5 -1.38658,0.2983 -1.67219,0.89485 -0.28564,0.59657 -0.42844,1.23191 -0.42843,1.90597 -1e-5,0.88142 0.10409,1.7628 0.31212,2.64417 0.20808,0.88141 0.46758,1.7628 0.77854,2.64417 0.31091,0.88141 0.6349,1.75014 0.97198,2.60618 0.33703,0.85609 0.6092,1.6726 0.81651,2.44954 0.88137,3.21542 1.56852,6.52102 2.06146,9.91681 0.49289,3.3958 0.73933,6.75282 0.73936,10.07109 -3e-5,0.9336 -0.0392,1.91902 -0.11747,2.95629 -0.0784,1.03725 -0.29871,2.00963 -0.66104,2.91713 -0.36239,0.90748 -0.89368,1.65951 -1.59387,2.25609 -0.70022,0.59654 -1.67299,0.89482 -2.91831,0.89483 -1.3482,-10e-6 -2.76088,-0.10409 -4.23802,-0.31212 -1.47718,-0.20811 -2.7862,-0.72673 -3.92709,-1.55587 -1.08869,-0.82919 -1.94436,-2.02152 -2.56703,-3.57699 -0.62267,-1.5555 -1.14129,-3.11098 -1.55587,-4.66646 -0.4146,-1.55549 -0.82917,-2.91673 -1.24375,-4.08374 -0.4146,-1.16701 -1.01116,-1.75051 -1.78969,-1.75051 -0.31173,0 -0.64877,0.0518 -1.01114,0.15544 -0.36237,0.10363 -0.54355,0.36275 -0.54355,0.77735 z m 11.82043,-44.25538 c 0.83073,1.19317 1.99774,2.20431 3.50102,3.03344 1.50325,0.8292 2.85144,1.4772 4.04458,1.94397 l 0.62187,0 c 1.24374,3e-5 1.86562,-0.62185 1.86563,-1.86564 -1e-5,-0.67405 -0.25912,-1.39997 -0.77734,-2.17775 -0.51826,-0.77771 -1.16624,-1.49096 -1.94396,-2.13979 -0.77776,-0.64873 -1.60733,-1.19346 -2.4887,-1.63421 -0.88141,-0.44064 -1.65914,-0.66099 -2.33322,-0.66104 -0.72634,5e-5 -1.33555,0.24651 -1.82766,0.73938 -0.49213,0.49295 -0.7382,1.10257 -0.73818,1.82883 -2e-5,0.10285 0.0124,0.25797 0.038,0.46522 0.0254,0.20733 0.038,0.36321 0.038,0.46759 z"
         inkscape:connector-curvature="0" />
      <path
         style="font-size:49.98757553px;font-style:normal;font-variant:normal;font-weight:normal;font-stretch:normal;text-align:start;line-height:125%;letter-spacing:0px;word-spacing:0px;writing-mode:lr-tb;text-anchor:start;fill:#666666;fill-opacity:1;stroke:none;font-family:'Ænigma Scrawl (BRK)';-inkscape-font-specification:'Ænigma Scrawl (BRK)'"
         id="path3009"
         d="m 456.08581,699.05275 c 0,1.29598 0.14237,2.50137 0.42724,3.61615 0.28483,1.11479 0.86793,2.16511 1.74932,3.15092 1.34819,1.45105 2.76126,2.86373 4.23923,4.23802 1.47793,1.37432 3.20194,2.34629 5.17202,2.91595 0.31171,0.1044 0.75281,0.22154 1.32327,0.35128 0.57044,0.12977 1.14088,0.25952 1.71134,0.38927 0.57044,0.12976 1.07601,0.24646 1.51673,0.3501 0.44067,0.10362 0.68634,0.15544 0.73698,0.15544 l 10.57905,0 c 0.10285,0 0.38765,-0.0392 0.85449,-0.11748 0.46677,-0.0783 0.82992,-0.14283 1.08947,-0.19345 0.20726,-0.0523 0.57002,-0.13007 1.08828,-0.23379 0.51821,-0.10363 1.0756,-0.23339 1.6722,-0.38926 0.59651,-0.15586 1.16696,-0.28563 1.71134,-0.38927 0.54431,-0.10362 0.92012,-0.18158 1.12744,-0.23379 0.57122,-0.15513 1.02536,-0.47867 1.36244,-0.9708 0.33702,-0.49212 0.50554,-1.0238 0.50557,-1.59505 -3e-5,-0.88137 -0.36318,-1.41266 -1.08946,-1.59385 -0.72636,-0.18117 -1.40045,-0.27178 -2.0223,-0.27178 -0.98585,0 -1.78971,0.0388 -2.41156,0.11623 -0.6219,0.0775 -1.47717,0.27218 -2.56583,0.5839 l -10.03312,0 c -0.0523,0 -0.27297,-0.0523 -0.66222,-0.15665 -0.38929,-0.10441 -0.85609,-0.22113 -1.40042,-0.3501 -0.54436,-0.12899 -1.08869,-0.25832 -1.63301,-0.38809 -0.54436,-0.12976 -0.97161,-0.24685 -1.28174,-0.35129 -0.77854,-0.20729 -1.62156,-0.54433 -2.52904,-1.01114 -0.90752,-0.4668 -1.75013,-1.0242 -2.52787,-1.67218 -0.77775,-0.64799 -1.43879,-1.38656 -1.98312,-2.21575 -0.54435,-0.82916 -0.81652,-1.71055 -0.81652,-2.64417 0,-0.20727 0.0906,-0.45373 0.27178,-0.73936 0.18118,-0.28561 0.40152,-0.55778 0.66105,-0.81651 0.2595,-0.25871 0.53207,-0.47906 0.81769,-0.66104 0.28561,-0.18197 0.53207,-0.27294 0.73937,-0.27296 l 10.96593,0 c 0.67408,2e-5 1.41305,-0.15544 2.21693,-0.46642 0.80382,-0.31091 1.55545,-0.7255 2.25489,-1.24375 0.69939,-0.51821 1.28251,-1.11438 1.74934,-1.78849 0.46678,-0.67408 0.70017,-1.37428 0.7002,-2.10062 -3e-5,-1.60767 -0.34973,-2.89099 -1.04912,-3.84994 -0.69944,-0.95889 -1.60655,-1.72359 -2.72132,-2.29406 -1.11481,-0.57042 -2.33363,-0.97235 -3.65649,-1.20578 -1.32289,-0.23338 -2.60621,-0.40229 -3.84994,-0.50676 l -1.94396,0 c -1.97009,3e-5 -3.75897,0.42807 -5.36667,1.2841 -1.6077,0.85611 -2.98201,1.97089 -4.1229,3.34437 -1.1409,1.37354 -2.02229,2.95474 -2.64417,4.7436 -0.62187,1.7889 -0.93281,3.61696 -0.93281,5.48415 z m 10.26573,-8.01083 c -2e-5,-0.36234 0.14283,-0.63451 0.42843,-0.8165 0.2856,-0.18196 0.6096,-0.29867 0.97197,-0.3501 0.36236,-0.0513 0.72552,-0.0772 1.08948,-0.0772 0.41457,2e-5 0.72551,2e-5 0.93282,0 0.20726,2e-5 0.57044,2e-5 1.08946,0 0.56965,2e-5 1.12664,0.0387 1.671,0.11623 0.54433,0.0775 1.02379,0.21998 1.4384,0.42724 0.41456,0.20732 0.62184,0.49215 0.62188,0.85449 -4e-5,0.1044 -0.0125,0.27338 -0.038,0.50675 -0.0254,0.23343 -0.14159,0.35014 -0.34892,0.3501 l -7.46727,0 c -0.25953,4e-5 -0.38928,-0.15584 -0.38926,-0.46758 -2e-5,-0.31013 -2e-5,-0.49131 0,-0.54355 z"
         inkscape:connector-curvature="0" />
      <path
         style="font-size:49.98757553px;font-style:normal;font-variant:normal;font-weight:normal;font-stretch:normal;text-align:start;line-height:125%;letter-spacing:0px;word-spacing:0px;writing-mode:lr-tb;text-anchor:start;fill:#666666;fill-opacity:1;stroke:none;font-family:'Ænigma Scrawl (BRK)';-inkscape-font-specification:'Ænigma Scrawl (BRK)'"
         id="path3011"
         d="m 494.51878,698.66348 c 0,2.85147 0.50557,5.26263 1.51671,7.23348 1.01114,1.97088 2.3981,3.57858 4.1609,4.82311 1.76277,1.24456 3.78466,2.139 6.06567,2.68333 2.281,0.54434 4.71827,0.81651 7.31181,0.81651 1.14089,0 2.24261,0.0124 3.30521,0.0392 1.06255,0.0261 2.13816,-0.0906 3.22688,-0.3501 0.20727,-0.0523 0.66101,-0.15625 1.36124,-0.31212 0.70019,-0.15586 1.49098,-0.33744 2.3724,-0.54474 0.88136,-0.20729 1.73703,-0.40152 2.56703,-0.58271 0.82992,-0.18119 1.4522,-0.32399 1.86681,-0.42843 0.62184,-0.15512 1.14008,-0.43991 1.55469,-0.85448 0.41455,-0.4146 0.62184,-0.95893 0.62187,-1.63304 -3e-5,-0.83074 -0.29791,-1.41464 -0.89365,-1.7517 -0.5958,-0.33703 -1.25683,-0.50555 -1.98311,-0.50557 -1.296,2e-5 -2.59238,0.10409 -3.88911,0.31212 -1.29679,0.20809 -2.60622,0.42844 -3.92827,0.66106 -1.32211,0.23261 -2.6442,0.45296 -3.96625,0.66104 -1.32211,0.20809 -2.63113,0.31212 -3.92708,0.31212 -1.34822,0 -2.74824,-0.24645 -4.20006,-0.73937 -1.45185,-0.4929 -2.78698,-1.18005 -4.00542,-2.06146 -1.21843,-0.88137 -2.21652,-1.93129 -2.99425,-3.14974 -0.77775,-1.21842 -1.16663,-2.57927 -1.16663,-4.08255 0,-0.519 0.0649,-1.14167 0.19464,-1.868 0.12976,-0.72631 0.33704,-1.41345 0.62187,-2.06146 0.28483,-0.64796 0.66065,-1.20536 1.12746,-1.67219 0.4668,-0.46678 1.06336,-0.70017 1.78967,-0.7002 0.10285,3e-5 0.21915,0.0124 0.34892,0.0392 0.12976,0.0261 0.24685,0.0392 0.3513,0.0392 0.67408,0.46683 1.23147,1.12786 1.67218,1.98313 0.44068,0.8553 0.89404,1.68486 1.36006,2.48869 0.466,0.80387 0.99729,1.51713 1.59386,2.13978 0.59653,0.62269 1.38773,0.93403 2.37357,0.93401 0.62186,2e-5 1.14009,-0.14283 1.5547,-0.42844 0.41457,-0.28559 0.75161,-0.64876 1.01114,-1.08946 0.2595,-0.44068 0.44108,-0.93319 0.54474,-1.47755 0.10362,-0.54433 0.15543,-1.07601 0.15543,-1.59505 -10e-6,-0.77693 -0.0906,-1.45063 -0.27177,-2.0211 -0.18121,-0.57044 -0.44032,-1.11477 -0.77735,-1.63303 -0.33706,-0.51821 -0.73899,-1.01072 -1.20577,-1.47755 -0.46683,-0.46678 -0.95973,-0.98579 -1.47874,-1.55707 -0.36238,-0.36233 -0.68637,-0.84179 -0.97198,-1.43838 -0.28564,-0.59653 -0.59697,-1.15393 -0.934,-1.6722 -0.33708,-0.51819 -0.71288,-0.97194 -1.12746,-1.36124 -0.41459,-0.38923 -0.93283,-0.58386 -1.55469,-0.58389 -0.41459,3e-5 -0.72553,3e-5 -0.93281,0 -0.15667,3e-5 -0.39008,0.10362 -0.70021,0.31093 -1.03805,0.67413 -2.02349,1.30945 -2.95629,1.90598 -0.93283,0.59659 -1.80116,1.23192 -2.60501,1.90599 -0.80385,0.67412 -1.52978,1.4388 -2.17776,2.29407 -0.64798,0.85529 -1.20538,1.85338 -1.67218,2.99425 -0.25951,0.67413 -0.37621,1.54285 -0.3501,2.60619 0.0261,1.06339 0.0392,1.8799 0.0392,2.44954 z"
         inkscape:connector-curvature="0" />
      <path
         style="font-size:49.98757553px;font-style:normal;font-variant:normal;font-weight:normal;font-stretch:normal;text-align:start;line-height:125%;letter-spacing:0px;word-spacing:0px;writing-mode:lr-tb;text-anchor:start;fill:#666666;fill-opacity:1;stroke:none;font-family:'Ænigma Scrawl (BRK)';-inkscape-font-specification:'Ænigma Scrawl (BRK)'"
         id="path3013"
         d="m 544.56093,693.91869 c 0.10441,2.48912 0.23419,5.04308 0.38927,7.66192 0.15512,2.61886 0.33703,5.17283 0.54591,7.66191 0.0506,0.51744 0.10207,1.13932 0.15435,1.86563 0.0521,0.72632 0.18197,1.43958 0.38927,2.13978 0.20728,0.7002 0.53127,1.29638 0.97199,1.7885 0.44067,0.49211 1.05029,0.73818 1.82883,0.73818 1.03645,0 1.78808,-0.32399 2.25491,-0.97199 0.46678,-0.64798 0.70018,-1.46488 0.7002,-2.45071 -2e-5,-0.93202 -0.0649,-1.73508 -0.19463,-2.40919 -0.12977,-0.67408 -0.40195,-1.53015 -0.81651,-2.56821 l 0,-12.52062 c -2e-5,-0.41615 0.22032,-0.80542 0.66104,-1.16779 0.44067,-0.36235 0.84219,-0.59576 1.20459,-0.70022 0.46678,-0.0521 1.30939,-0.11701 2.52786,-0.19463 1.21841,-0.0775 2.51478,-0.16811 3.88911,-0.27178 1.37428,-0.10362 2.67064,-0.20727 3.8891,-0.31094 1.21841,-0.10362 2.06103,-0.15544 2.52787,-0.15544 0.77691,-0.1044 1.50244,-0.24722 2.17656,-0.42842 0.67407,-0.18116 1.01111,-0.76467 1.01114,-1.75052 -3e-5,-0.62185 -0.22038,-1.10131 -0.66103,-1.43839 -0.44074,-0.33701 -0.95896,-0.58308 -1.55469,-0.73818 -0.5958,-0.15497 -1.21808,-0.24563 -1.86683,-0.27177 -0.64881,-0.0261 -1.18049,-0.0652 -1.59504,-0.11748 -0.41462,3e-5 -1.12747,-0.0257 -2.1386,-0.0772 -1.01117,-0.0514 -2.07414,-0.0902 -3.1889,-0.11623 -1.11481,-0.0261 -2.17778,-0.0521 -3.18889,-0.0783 -1.01117,-0.0261 -1.72404,-0.0392 -2.1386,-0.0392 -1.296,-0.7263 -2.08679,-1.6599 -2.3724,-2.80082 -0.28564,-1.14088 -0.42844,-2.38542 -0.42842,-3.73364 -2e-5,-0.88136 0.0521,-1.7497 0.15665,-2.60501 0.1044,-0.85524 0.15663,-1.72357 0.15666,-2.60501 -3e-5,-0.98578 -0.23342,-1.98427 -0.70021,-2.99545 -0.46682,-1.0111 -1.29678,-1.51667 -2.48987,-1.51671 -0.62191,4e-5 -1.12748,0.23345 -1.51673,0.7002 -0.38928,0.46684 -0.68755,0.98587 -0.89483,1.55707 -2e-5,0.15513 -0.0124,0.49177 -0.0392,1.00996 -0.0261,0.51826 -0.0392,0.85571 -0.0392,1.01233 -2e-5,0.88143 0.0649,1.73671 0.19463,2.56583 0.12977,0.82921 0.19462,1.68449 0.19463,2.56585 -10e-6,0.4162 -10e-6,0.93521 0,1.55706 -10e-6,0.56969 -0.0775,1.11403 -0.23261,1.63303 -0.15513,0.51904 -0.40115,0.95974 -0.73818,1.32207 -0.33706,0.3624 -0.81653,0.54359 -1.43839,0.54355 -0.72632,4e-5 -1.40082,-0.16849 -2.02347,-0.50557 -0.62269,-0.33701 -1.2319,-0.69978 -1.82767,-1.08828 -0.59576,-0.38845 -1.19194,-0.7512 -1.78848,-1.08828 -0.59656,-0.33702 -1.25801,-0.50554 -1.98432,-0.50559 -0.62187,5e-5 -1.19194,0.24611 -1.71016,0.73819 -0.51823,0.49215 -0.77734,1.07527 -0.77734,1.74933 0,0.67413 0.19423,1.30945 0.58271,1.90598 0.38847,0.59659 0.85488,1.12827 1.39922,1.59505 0.54433,0.46682 1.14089,0.89447 1.78969,1.28291 0.64876,0.3885 1.25799,0.68639 1.82764,0.89365 0.51902,0.2089 1.1413,0.39089 1.86683,0.54593 0.7255,0.15513 1.43837,0.34934 2.13859,0.58272 0.7002,0.23342 1.32246,0.55741 1.86682,0.97197 0.54433,0.41461 0.89403,0.95896 1.04912,1.63302 z"
         inkscape:connector-curvature="0" />
    </g>
  </g>
  <g
     inkscape:groupmode="layer"
     id="layer1"
     inkscape:label="Nombre"
     style="display:inline">
    <rect
       style="opacity:0.84999999999999998;fill:#0707ff;fill-opacity:1;fill-rule:nonzero;stroke:none;display:inline"
       id="rect6594"
       width="1763.3334"
       height="176.33331"
       x="78.333313"
       y="872.34521"
       ry="79.84906" />
    <rect
       style="opacity:0.84999999999999998;fill:#9b9bff;fill-opacity:1;fill-rule:nonzero;stroke:none;display:inline"
       id="rect6594-9"
       width="1739.7632"
       height="173.97629"
       x="90.118408"
       y="873.52374"
       ry="78.781731" />
    <rect
       style="opacity:0.84999999999999998;fill:#9090ff;fill-opacity:1;fill-rule:nonzero;stroke:none;display:inline"
       id="rect6594-9-3"
       width="1473.0964"
       height="147.30962"
       x="223.45177"
       y="886.85706"
       ry="66.706253" />
    <g
       transform="matrix(0.12704341,0,0,0.12704341,-16.365088,1869.688)"
       style="display:inline"
       id="g26450">
      <g
         id="g1786"
         style="opacity:0.2"
         transform="matrix(4.3419223,0,0,4.3419223,-3810.9683,-7611.3632)">
        <path
           id="path1788"
           d="M 1186.053,155.514 V 57.418 h 24.523 v 73.572 h 24.525 V 57.418 h 24.525 v 73.572 h 24.521 V 57.418 h 24.526 v 98.096 h -122.62 z"
           inkscape:connector-curvature="0"
           style="fill:#242021" />
        <path
           id="path1790"
           d="M 1317.804,155.514 V 57.418 h 24.524 v 98.096 h -24.524 z"
           inkscape:connector-curvature="0"
           style="fill:#242021" />
        <path
           id="path1792"
           d="M 1351.46,155.514 V 130.99 h 98.096 v -12.262 h -98.096 v -61.31 h 122.62 v 24.523 h -98.098 v 12.263 h 98.098 v 61.31 h -122.62 z"
           inkscape:connector-curvature="0"
           style="fill:#242021" />
        <path
           id="path1794"
           d="M 1483.213,155.514 V 57.418 h 24.522 v 98.096 h -24.522 z"
           inkscape:connector-curvature="0"
           style="fill:#242021" />
        <path
           id="path1796"
           d="M 1565.914,155.514 V 81.941 h -49.046 V 57.418 h 122.62 v 24.523 h -49.049 v 73.573 h -24.525 z"
           inkscape:connector-curvature="0"
           style="fill:#242021" />
      </g>
      <g
         id="g1798"
         transform="matrix(4.3419223,0,0,4.3419223,-3810.9683,-7611.3632)">
        <path
           id="path1800"
           d="M 1182.68,152.14 V 54.044 h 24.521 v 73.571 h 24.524 V 54.044 h 24.525 v 73.571 h 24.523 V 54.044 h 24.525 V 152.14 H 1182.68 z"
           inkscape:connector-curvature="0"
           style="fill:#ffffff" />
        <path
           id="path1802"
           d="M 1314.431,152.14 V 54.044 h 24.521 v 98.096 h -24.521 z"
           inkscape:connector-curvature="0"
           style="fill:#ffffff" />
        <path
           id="path1804"
           d="m 1348.085,152.14 v -24.524 h 98.096 v -12.261 h -98.096 v -61.31 h 122.62 v 24.523 h -98.098 V 90.83 h 98.098 v 61.31 h -122.62 z"
           inkscape:connector-curvature="0"
           style="fill:#ffffff" />
        <path
           id="path1806"
           d="M 1479.838,152.14 V 54.044 h 24.523 v 98.096 h -24.523 z"
           inkscape:connector-curvature="0"
           style="fill:#ffffff" />
        <path
           id="path1808"
           d="M 1562.538,152.14 V 78.567 h -49.046 V 54.044 h 122.621 v 24.523 h -49.048 v 73.573 h -24.527 z"
           inkscape:connector-curvature="0"
           style="fill:#ffffff" />
      </g>
      <g
         id="g1810"
         style="opacity:0.2"
         transform="matrix(4.3419223,0,0,4.3419223,-3810.9683,-7611.3632)">
        <path
           id="path1812"
           d="m 1674.117,59.354 v 89.711 h -16.454 V 59.354 h 16.454 m 3.982,-3.983 h -24.418 v 97.676 h 24.418 V 55.371 l 0,0 z"
           inkscape:connector-curvature="0"
           style="fill:#020101" />
        <path
           id="path1814"
           d="m 1805.667,59.354 v 89.711 h -16.464 v -32.644 -3.982 h -3.982 -93.693 V 59.354 h 16.452 v 32.644 3.982 h 3.981 73.26 3.982 V 91.998 59.354 h 16.464 m 3.982,-3.983 h -24.429 v 36.626 h -73.26 V 55.371 h -24.416 v 61.05 h 97.676 v 36.626 h 24.429 V 55.371 l 0,0 z"
           inkscape:connector-curvature="0"
           style="fill:#020101" />
      </g>
      <g
         id="g1816"
         transform="matrix(4.3419223,0,0,4.3419223,-3810.9683,-7611.3632)">
        <path
           id="path1818"
           d="m 1672.789,58.026 v 89.712 h -16.453 V 58.026 h 16.453 m 3.982,-3.982 h -24.418 v 97.676 h 24.418 V 54.044 l 0,0 z"
           inkscape:connector-curvature="0"
           style="fill:#ffffff" />
        <path
           id="path1820"
           d="m 1804.34,58.026 v 89.712 h -16.465 v -32.645 -3.982 h -3.981 -93.694 V 58.026 h 16.453 v 32.644 3.982 h 3.981 73.26 3.981 V 90.67 58.026 h 16.465 m 3.981,-3.982 h -24.428 V 90.67 h -73.26 V 54.044 h -24.416 v 61.049 h 97.676 v 36.626 h 24.428 V 54.044 l 0,0 z"
           inkscape:connector-curvature="0"
           style="fill:#ffffff" />
      </g>
    </g>
    <text
       xml:space="preserve"
       style="font-size:43.39886093px;font-style:normal;font-variant:normal;font-weight:normal;font-stretch:normal;line-height:125%;letter-spacing:0px;word-spacing:0px;fill:#000000;fill-opacity:1;stroke:none;display:inline;font-family:Helvetica Neue;-inkscape-font-specification:Helvetica Neue"
       x="545.27631"
       y="974.75751"
       id="text6693"
       sodipodi:linespacing="125%"><tspan
         sodipodi:role="line"
         id="tspan6695"
         x="545.27631"
         y="974.75751"
         style="font-size:56.41851807px">Nicolás Scarcella - Uqbar Project</tspan></text>
  </g>
</svg>
