<?xml version='1.0' encoding='utf-8'?>
<mlt title="Anonymous Submission" version="0.9.3" root="/media/pablitar/Datos/WISIT2014/03 - CIAA" LC_NUMERIC="en_US.UTF-8">
 <profile width="1280" display_aspect_den="9" colorspace="709" frame_rate_den="1" description="HD 720p 30 fps" height="720" display_aspect_num="16" frame_rate_num="30" progressive="1" sample_aspect_num="1" sample_aspect_den="1"/>
 <producer in="0" out="66046" id="black">
  <property name="mlt_type">producer</property>
  <property name="length">66047</property>
  <property name="eof">pause</property>
  <property name="resource">black</property>
  <property name="aspect_ratio">0</property>
  <property name="mlt_service">colour</property>
 </producer>
 <playlist id="black_track">
  <entry in="0" out="63104" producer="black"/>
 </playlist>
 <playlist id="playlist1"/>
 <producer in="0" out="66046" id="2_5">
  <property name="mlt_type">producer</property>
  <property name="length">66047</property>
  <property name="eof">pause</property>
  <property name="resource">CIAA.ogg</property>
  <property name="meta.media.nb_streams">1</property>
  <property name="meta.media.0.stream.type">audio</property>
  <property name="meta.media.0.codec.sample_fmt">fltp</property>
  <property name="meta.media.0.codec.sample_rate">44100</property>
  <property name="meta.media.0.codec.channels">2</property>
  <property name="meta.media.0.codec.name">vorbis</property>
  <property name="meta.media.0.codec.long_name">Vorbis</property>
  <property name="meta.media.0.codec.bit_rate">160000</property>
  <property name="meta.attr.0.stream.DATE.markup">2014</property>
  <property name="meta.attr.0.stream.ARTIST.markup">WISIT</property>
  <property name="seekable">1</property>
  <property name="audio_index">0</property>
  <property name="video_index">-1</property>
  <property name="mlt_service">avformat</property>
 </producer>
 <playlist id="playlist2">
  <blank length="215"/>
  <entry in="1244" out="63983" producer="2_5"/>
 </playlist>
 <producer in="0" out="62026" id="3">
  <property name="mlt_type">producer</property>
  <property name="length">62027</property>
  <property name="eof">pause</property>
  <property name="resource">CIAA_screen.mp4</property>
  <property name="meta.media.nb_streams">1</property>
  <property name="meta.media.0.stream.type">video</property>
  <property name="meta.media.0.stream.frame_rate">60</property>
  <property name="meta.media.0.stream.sample_aspect_ratio">0</property>
  <property name="meta.media.0.codec.width">800</property>
  <property name="meta.media.0.codec.height">600</property>
  <property name="meta.media.0.codec.frame_rate">60</property>
  <property name="meta.media.0.codec.pix_fmt">yuv420p</property>
  <property name="meta.media.0.codec.sample_aspect_ratio">0</property>
  <property name="meta.media.0.codec.colorspace">601</property>
  <property name="meta.media.0.codec.name">h264</property>
  <property name="meta.media.0.codec.long_name">H.264 / AVC / MPEG-4 AVC / MPEG-4 part 10</property>
  <property name="meta.media.0.codec.bit_rate">1134684</property>
  <property name="meta.attr.0.stream.language.markup">eng</property>
  <property name="meta.attr.major_brand.markup">isom</property>
  <property name="meta.attr.minor_version.markup">512</property>
  <property name="meta.attr.compatible_brands.markup">qt  </property>
  <property name="seekable">1</property>
  <property name="meta.media.sample_aspect_num">1</property>
  <property name="meta.media.sample_aspect_den">1</property>
  <property name="aspect_ratio">1</property>
  <property name="audio_index">-1</property>
  <property name="video_index">0</property>
  <property name="mlt_service">avformat</property>
  <property name="meta.media.frame_rate_num">60</property>
  <property name="meta.media.frame_rate_den">1</property>
  <property name="meta.media.colorspace">601</property>
  <property name="meta.media.color_trc">2</property>
  <property name="meta.media.width">800</property>
  <property name="meta.media.height">600</property>
  <property name="meta.media.top_field_first">0</property>
  <property name="meta.media.progressive">1</property>
 </producer>
 <playlist id="playlist3">
  <blank length="215"/>
  <entry in="1337" out="62026" producer="3"/>
 </playlist>
 <producer in="0" out="63633" id="1_3">
  <property name="mlt_type">producer</property>
  <property name="length">63634</property>
  <property name="eof">pause</property>
  <property name="resource">03 - CIAA.MP4</property>
  <property name="meta.media.nb_streams">2</property>
  <property name="meta.media.0.stream.type">video</property>
  <property name="meta.media.0.stream.frame_rate">29.97</property>
  <property name="meta.media.0.stream.sample_aspect_ratio">0</property>
  <property name="meta.media.0.codec.width">1280</property>
  <property name="meta.media.0.codec.height">720</property>
  <property name="meta.media.0.codec.frame_rate">29.97</property>
  <property name="meta.media.0.codec.pix_fmt">yuv420p</property>
  <property name="meta.media.0.codec.sample_aspect_ratio">1</property>
  <property name="meta.media.0.codec.colorspace">709</property>
  <property name="meta.media.0.codec.color_trc">11</property>
  <property name="meta.media.0.codec.name">h264</property>
  <property name="meta.media.0.codec.long_name">H.264 / AVC / MPEG-4 AVC / MPEG-4 part 10</property>
  <property name="meta.media.0.codec.bit_rate">5991169</property>
  <property name="meta.attr.0.stream.creation_time.markup">2014-11-28 15:54:14</property>
  <property name="meta.attr.0.stream.encoder.markup">AVC Coding</property>
  <property name="meta.media.1.stream.type">audio</property>
  <property name="meta.media.1.codec.sample_fmt">fltp</property>
  <property name="meta.media.1.codec.sample_rate">48000</property>
  <property name="meta.media.1.codec.channels">2</property>
  <property name="meta.media.1.codec.name">aac</property>
  <property name="meta.media.1.codec.long_name">AAC (Advanced Audio Coding)</property>
  <property name="meta.media.1.codec.bit_rate">127963</property>
  <property name="meta.attr.1.stream.creation_time.markup">2014-11-28 15:54:14</property>
  <property name="meta.attr.major_brand.markup">MSNV</property>
  <property name="meta.attr.minor_version.markup">22675568</property>
  <property name="meta.attr.compatible_brands.markup">MSNVmp42isom</property>
  <property name="meta.attr.creation_time.markup">2014-11-28 15:54:14</property>
  <property name="seekable">1</property>
  <property name="meta.media.sample_aspect_num">1</property>
  <property name="meta.media.sample_aspect_den">1</property>
  <property name="aspect_ratio">1</property>
  <property name="audio_index">1</property>
  <property name="video_index">0</property>
  <property name="mlt_service">avformat</property>
  <property name="meta.media.frame_rate_num">30000</property>
  <property name="meta.media.frame_rate_den">1001</property>
  <property name="meta.media.colorspace">709</property>
  <property name="meta.media.color_trc">11</property>
  <property name="meta.media.width">1280</property>
  <property name="meta.media.height">720</property>
  <property name="meta.media.top_field_first">0</property>
  <property name="meta.media.progressive">1</property>
 </producer>
 <playlist id="playlist4">
  <blank length="215"/>
  <entry in="894" out="63633" producer="1_3">
   <filter in="894" out="54829" id="volume">
    <property name="track">0</property>
    <property name="window">75</property>
    <property name="max_gain">20dB</property>
    <property name="mlt_type">filter</property>
    <property name="mlt_service">volume</property>
    <property name="kdenlive_id">volume</property>
    <property name="tag">volume</property>
    <property name="kdenlive_ix">1</property>
    <property name="kdenlive_info"/>
    <property name="gain">0</property>
    <property name="end">0</property>
   </filter>
   <filter in="54829" out="54852" id="filter0">
    <property name="track">0</property>
    <property name="window">75</property>
    <property name="max_gain">20dB</property>
    <property name="mlt_type">filter</property>
    <property name="mlt_service">volume</property>
    <property name="kdenlive_id">volume</property>
    <property name="tag">volume</property>
    <property name="kdenlive_ix">1</property>
    <property name="kdenlive_info"/>
    <property name="gain">0</property>
    <property name="end">1</property>
   </filter>
   <filter in="54852" out="55085" id="filter1">
    <property name="track">0</property>
    <property name="window">75</property>
    <property name="max_gain">20dB</property>
    <property name="mlt_type">filter</property>
    <property name="mlt_service">volume</property>
    <property name="kdenlive_id">volume</property>
    <property name="tag">volume</property>
    <property name="kdenlive_ix">1</property>
    <property name="kdenlive_info"/>
    <property name="gain">1</property>
    <property name="end">1</property>
   </filter>
   <filter in="55085" out="55102" id="filter2">
    <property name="track">0</property>
    <property name="window">75</property>
    <property name="max_gain">20dB</property>
    <property name="mlt_type">filter</property>
    <property name="mlt_service">volume</property>
    <property name="kdenlive_id">volume</property>
    <property name="tag">volume</property>
    <property name="kdenlive_ix">1</property>
    <property name="kdenlive_info"/>
    <property name="gain">1</property>
    <property name="end">0</property>
   </filter>
   <filter in="55102" out="63443" id="filter3">
    <property name="track">0</property>
    <property name="window">75</property>
    <property name="max_gain">20dB</property>
    <property name="mlt_type">filter</property>
    <property name="mlt_service">volume</property>
    <property name="kdenlive_id">volume</property>
    <property name="tag">volume</property>
    <property name="kdenlive_ix">1</property>
    <property name="kdenlive_info"/>
    <property name="gain">0</property>
    <property name="end">0</property>
   </filter>
   <filter in="63443" out="63463" id="filter4">
    <property name="track">0</property>
    <property name="window">75</property>
    <property name="max_gain">20dB</property>
    <property name="mlt_type">filter</property>
    <property name="mlt_service">volume</property>
    <property name="kdenlive_id">volume</property>
    <property name="tag">volume</property>
    <property name="kdenlive_ix">1</property>
    <property name="kdenlive_info"/>
    <property name="gain">0</property>
    <property name="end">1.18</property>
   </filter>
   <filter in="63463" out="63597" id="filter5">
    <property name="track">0</property>
    <property name="window">75</property>
    <property name="max_gain">20dB</property>
    <property name="mlt_type">filter</property>
    <property name="mlt_service">volume</property>
    <property name="kdenlive_id">volume</property>
    <property name="tag">volume</property>
    <property name="kdenlive_ix">1</property>
    <property name="kdenlive_info"/>
    <property name="gain">1.18</property>
    <property name="end">1.18</property>
   </filter>
   <filter in="63597" out="63633" id="filter6">
    <property name="track">0</property>
    <property name="window">75</property>
    <property name="max_gain">20dB</property>
    <property name="mlt_type">filter</property>
    <property name="mlt_service">volume</property>
    <property name="kdenlive_id">volume</property>
    <property name="tag">volume</property>
    <property name="kdenlive_ix">1</property>
    <property name="kdenlive_info"/>
    <property name="gain">1.18</property>
    <property name="end">0</property>
   </filter>
   <filter in="63558" out="63633" id="fade_to_black">
    <property name="track">0</property>
    <property name="start">1</property>
    <property name="mlt_type">filter</property>
    <property name="mlt_service">brightness</property>
    <property name="kdenlive_id">fade_to_black</property>
    <property name="tag">brightness</property>
    <property name="kdenlive_ix">2</property>
    <property name="end">0</property>
   </filter>
  </entry>
 </playlist>
 <producer in="0" out="62739" id="18">
  <property name="mlt_type">producer</property>
  <property name="length">62740</property>
  <property name="eof">pause</property>
  <property name="resource">/media/pablitar/Datos/WISIT2014/Sobre Impresos/logo-uqbar-semitransparente.png</property>
  <property name="ttl">25</property>
  <property name="aspect_ratio">1</property>
  <property name="progressive">1</property>
  <property name="seekable">1</property>
  <property name="loop">1</property>
  <property name="meta.media.width">1920</property>
  <property name="meta.media.height">1080</property>
  <property name="mlt_service">pixbuf</property>
 </producer>
 <playlist id="playlist5">
  <blank length="215"/>
  <entry in="0" out="62739" producer="18">
   <filter in="62664" out="62739" id="filter7">
    <property name="track">0</property>
    <property name="start">1</property>
    <property name="mlt_type">filter</property>
    <property name="mlt_service">brightness</property>
    <property name="kdenlive_id">fade_to_black</property>
    <property name="tag">brightness</property>
    <property name="kdenlive_ix">1</property>
    <property name="end">0</property>
   </filter>
  </entry>
 </playlist>
 <producer in="0" out="360" id="20">
  <property name="mlt_type">producer</property>
  <property name="length">361</property>
  <property name="eof">pause</property>
  <property name="resource">/media/pablitar/Datos/WISIT2014/Sobre Impresos/03 - CIAA.png</property>
  <property name="ttl">25</property>
  <property name="aspect_ratio">1</property>
  <property name="progressive">1</property>
  <property name="seekable">1</property>
  <property name="loop">1</property>
  <property name="meta.media.width">1920</property>
  <property name="meta.media.height">1080</property>
  <property name="mlt_service">pixbuf</property>
 </producer>
 <producer in="0" out="258" id="5_1">
  <property name="mlt_type">producer</property>
  <property name="length">259</property>
  <property name="eof">pause</property>
  <property name="resource">MAH04204.MP4</property>
  <property name="meta.media.nb_streams">2</property>
  <property name="meta.media.0.stream.type">video</property>
  <property name="meta.media.0.stream.frame_rate">25</property>
  <property name="meta.media.0.stream.sample_aspect_ratio">0</property>
  <property name="meta.media.0.codec.width">1280</property>
  <property name="meta.media.0.codec.height">720</property>
  <property name="meta.media.0.codec.frame_rate">25</property>
  <property name="meta.media.0.codec.pix_fmt">yuv420p</property>
  <property name="meta.media.0.codec.sample_aspect_ratio">1</property>
  <property name="meta.media.0.codec.colorspace">709</property>
  <property name="meta.media.0.codec.name">h264</property>
  <property name="meta.media.0.codec.long_name">H.264 / AVC / MPEG-4 AVC / MPEG-4 part 10</property>
  <property name="meta.media.0.codec.bit_rate">6092376</property>
  <property name="meta.attr.0.stream.creation_time.markup">2014-11-28 12:59:47</property>
  <property name="meta.attr.0.stream.encoder.markup">AVC Coding</property>
  <property name="meta.media.1.stream.type">audio</property>
  <property name="meta.media.1.codec.sample_fmt">fltp</property>
  <property name="meta.media.1.codec.sample_rate">48000</property>
  <property name="meta.media.1.codec.channels">2</property>
  <property name="meta.media.1.codec.name">aac</property>
  <property name="meta.media.1.codec.long_name">AAC (Advanced Audio Coding)</property>
  <property name="meta.media.1.codec.bit_rate">126586</property>
  <property name="meta.attr.1.stream.creation_time.markup">2014-11-28 12:59:47</property>
  <property name="meta.attr.major_brand.markup">MSNV</property>
  <property name="meta.attr.minor_version.markup">19595376</property>
  <property name="meta.attr.compatible_brands.markup">MSNVmp42isom</property>
  <property name="meta.attr.creation_time.markup">2014-11-28 12:59:47</property>
  <property name="seekable">1</property>
  <property name="meta.media.sample_aspect_num">1</property>
  <property name="meta.media.sample_aspect_den">1</property>
  <property name="aspect_ratio">1</property>
  <property name="audio_index">1</property>
  <property name="video_index">0</property>
  <property name="mlt_service">avformat</property>
  <property name="meta.media.frame_rate_num">25</property>
  <property name="meta.media.frame_rate_den">1</property>
  <property name="meta.media.colorspace">709</property>
  <property name="meta.media.color_trc">2</property>
  <property name="meta.media.width">1280</property>
  <property name="meta.media.height">720</property>
  <property name="meta.media.top_field_first">0</property>
  <property name="meta.media.progressive">1</property>
 </producer>
 <producer in="0" out="964" id="6_1">
  <property name="mlt_type">producer</property>
  <property name="length">965</property>
  <property name="eof">pause</property>
  <property name="resource">MAH04205.MP4</property>
  <property name="meta.media.nb_streams">2</property>
  <property name="meta.media.0.stream.type">video</property>
  <property name="meta.media.0.stream.frame_rate">25</property>
  <property name="meta.media.0.stream.sample_aspect_ratio">0</property>
  <property name="meta.media.0.codec.width">1280</property>
  <property name="meta.media.0.codec.height">720</property>
  <property name="meta.media.0.codec.frame_rate">25</property>
  <property name="meta.media.0.codec.pix_fmt">yuv420p</property>
  <property name="meta.media.0.codec.sample_aspect_ratio">1</property>
  <property name="meta.media.0.codec.colorspace">709</property>
  <property name="meta.media.0.codec.name">h264</property>
  <property name="meta.media.0.codec.long_name">H.264 / AVC / MPEG-4 AVC / MPEG-4 part 10</property>
  <property name="meta.media.0.codec.bit_rate">6011189</property>
  <property name="meta.attr.0.stream.creation_time.markup">2014-11-28 13:06:39</property>
  <property name="meta.attr.0.stream.encoder.markup">AVC Coding</property>
  <property name="meta.media.1.stream.type">audio</property>
  <property name="meta.media.1.codec.sample_fmt">fltp</property>
  <property name="meta.media.1.codec.sample_rate">48000</property>
  <property name="meta.media.1.codec.channels">2</property>
  <property name="meta.media.1.codec.name">aac</property>
  <property name="meta.media.1.codec.long_name">AAC (Advanced Audio Coding)</property>
  <property name="meta.media.1.codec.bit_rate">127596</property>
  <property name="meta.attr.1.stream.creation_time.markup">2014-11-28 13:06:39</property>
  <property name="meta.attr.major_brand.markup">MSNV</property>
  <property name="meta.attr.minor_version.markup">19595376</property>
  <property name="meta.attr.compatible_brands.markup">MSNVmp42isom</property>
  <property name="meta.attr.creation_time.markup">2014-11-28 13:06:39</property>
  <property name="seekable">1</property>
  <property name="meta.media.sample_aspect_num">1</property>
  <property name="meta.media.sample_aspect_den">1</property>
  <property name="aspect_ratio">1</property>
  <property name="audio_index">1</property>
  <property name="video_index">0</property>
  <property name="mlt_service">avformat</property>
  <property name="meta.media.frame_rate_num">25</property>
  <property name="meta.media.frame_rate_den">1</property>
  <property name="meta.media.colorspace">709</property>
  <property name="meta.media.color_trc">2</property>
  <property name="meta.media.width">1280</property>
  <property name="meta.media.height">720</property>
  <property name="meta.media.top_field_first">0</property>
  <property name="meta.media.progressive">1</property>
 </producer>
 <producer in="0" out="1482" id="7_1">
  <property name="mlt_type">producer</property>
  <property name="length">1483</property>
  <property name="eof">pause</property>
  <property name="resource">MAH04206.MP4</property>
  <property name="meta.media.nb_streams">2</property>
  <property name="meta.media.0.stream.type">video</property>
  <property name="meta.media.0.stream.frame_rate">25</property>
  <property name="meta.media.0.stream.sample_aspect_ratio">0</property>
  <property name="meta.media.0.codec.width">1280</property>
  <property name="meta.media.0.codec.height">720</property>
  <property name="meta.media.0.codec.frame_rate">25</property>
  <property name="meta.media.0.codec.pix_fmt">yuv420p</property>
  <property name="meta.media.0.codec.sample_aspect_ratio">1</property>
  <property name="meta.media.0.codec.colorspace">709</property>
  <property name="meta.media.0.codec.name">h264</property>
  <property name="meta.media.0.codec.long_name">H.264 / AVC / MPEG-4 AVC / MPEG-4 part 10</property>
  <property name="meta.media.0.codec.bit_rate">6010732</property>
  <property name="meta.attr.0.stream.creation_time.markup">2014-11-28 13:09:51</property>
  <property name="meta.attr.0.stream.encoder.markup">AVC Coding</property>
  <property name="meta.media.1.stream.type">audio</property>
  <property name="meta.media.1.codec.sample_fmt">fltp</property>
  <property name="meta.media.1.codec.sample_rate">48000</property>
  <property name="meta.media.1.codec.channels">2</property>
  <property name="meta.media.1.codec.name">aac</property>
  <property name="meta.media.1.codec.long_name">AAC (Advanced Audio Coding)</property>
  <property name="meta.media.1.codec.bit_rate">127726</property>
  <property name="meta.attr.1.stream.creation_time.markup">2014-11-28 13:09:51</property>
  <property name="meta.attr.major_brand.markup">MSNV</property>
  <property name="meta.attr.minor_version.markup">19595376</property>
  <property name="meta.attr.compatible_brands.markup">MSNVmp42isom</property>
  <property name="meta.attr.creation_time.markup">2014-11-28 13:09:51</property>
  <property name="seekable">1</property>
  <property name="meta.media.sample_aspect_num">1</property>
  <property name="meta.media.sample_aspect_den">1</property>
  <property name="aspect_ratio">1</property>
  <property name="audio_index">1</property>
  <property name="video_index">0</property>
  <property name="mlt_service">avformat</property>
  <property name="meta.media.frame_rate_num">25</property>
  <property name="meta.media.frame_rate_den">1</property>
  <property name="meta.media.colorspace">709</property>
  <property name="meta.media.color_trc">2</property>
  <property name="meta.media.width">1280</property>
  <property name="meta.media.height">720</property>
  <property name="meta.media.top_field_first">0</property>
  <property name="meta.media.progressive">1</property>
 </producer>
 <producer in="0" out="273" id="8_1">
  <property name="mlt_type">producer</property>
  <property name="length">274</property>
  <property name="eof">pause</property>
  <property name="resource">MAH04207.MP4</property>
  <property name="meta.media.nb_streams">2</property>
  <property name="meta.media.0.stream.type">video</property>
  <property name="meta.media.0.stream.frame_rate">25</property>
  <property name="meta.media.0.stream.sample_aspect_ratio">0</property>
  <property name="meta.media.0.codec.width">1280</property>
  <property name="meta.media.0.codec.height">720</property>
  <property name="meta.media.0.codec.frame_rate">25</property>
  <property name="meta.media.0.codec.pix_fmt">yuv420p</property>
  <property name="meta.media.0.codec.sample_aspect_ratio">1</property>
  <property name="meta.media.0.codec.colorspace">709</property>
  <property name="meta.media.0.codec.name">h264</property>
  <property name="meta.media.0.codec.long_name">H.264 / AVC / MPEG-4 AVC / MPEG-4 part 10</property>
  <property name="meta.media.0.codec.bit_rate">6060666</property>
  <property name="meta.attr.0.stream.creation_time.markup">2014-11-28 13:14:29</property>
  <property name="meta.attr.0.stream.encoder.markup">AVC Coding</property>
  <property name="meta.media.1.stream.type">audio</property>
  <property name="meta.media.1.codec.sample_fmt">fltp</property>
  <property name="meta.media.1.codec.sample_rate">48000</property>
  <property name="meta.media.1.codec.channels">2</property>
  <property name="meta.media.1.codec.name">aac</property>
  <property name="meta.media.1.codec.long_name">AAC (Advanced Audio Coding)</property>
  <property name="meta.media.1.codec.bit_rate">126648</property>
  <property name="meta.attr.1.stream.creation_time.markup">2014-11-28 13:14:29</property>
  <property name="meta.attr.major_brand.markup">MSNV</property>
  <property name="meta.attr.minor_version.markup">19595376</property>
  <property name="meta.attr.compatible_brands.markup">MSNVmp42isom</property>
  <property name="meta.attr.creation_time.markup">2014-11-28 13:14:29</property>
  <property name="seekable">1</property>
  <property name="meta.media.sample_aspect_num">1</property>
  <property name="meta.media.sample_aspect_den">1</property>
  <property name="aspect_ratio">1</property>
  <property name="audio_index">1</property>
  <property name="video_index">0</property>
  <property name="mlt_service">avformat</property>
  <property name="meta.media.frame_rate_num">25</property>
  <property name="meta.media.frame_rate_den">1</property>
  <property name="meta.media.colorspace">709</property>
  <property name="meta.media.color_trc">2</property>
  <property name="meta.media.width">1280</property>
  <property name="meta.media.height">720</property>
  <property name="meta.media.top_field_first">0</property>
  <property name="meta.media.progressive">1</property>
 </producer>
 <producer in="0" out="330" id="9_1">
  <property name="mlt_type">producer</property>
  <property name="length">331</property>
  <property name="eof">pause</property>
  <property name="resource">MAH04208.MP4</property>
  <property name="meta.media.nb_streams">2</property>
  <property name="meta.media.0.stream.type">video</property>
  <property name="meta.media.0.stream.frame_rate">25</property>
  <property name="meta.media.0.stream.sample_aspect_ratio">0</property>
  <property name="meta.media.0.codec.width">1280</property>
  <property name="meta.media.0.codec.height">720</property>
  <property name="meta.media.0.codec.frame_rate">25</property>
  <property name="meta.media.0.codec.pix_fmt">yuv420p</property>
  <property name="meta.media.0.codec.sample_aspect_ratio">1</property>
  <property name="meta.media.0.codec.colorspace">709</property>
  <property name="meta.media.0.codec.name">h264</property>
  <property name="meta.media.0.codec.long_name">H.264 / AVC / MPEG-4 AVC / MPEG-4 part 10</property>
  <property name="meta.media.0.codec.bit_rate">6032952</property>
  <property name="meta.attr.0.stream.creation_time.markup">2014-11-28 13:16:40</property>
  <property name="meta.attr.0.stream.encoder.markup">AVC Coding</property>
  <property name="meta.media.1.stream.type">audio</property>
  <property name="meta.media.1.codec.sample_fmt">fltp</property>
  <property name="meta.media.1.codec.sample_rate">48000</property>
  <property name="meta.media.1.codec.channels">2</property>
  <property name="meta.media.1.codec.name">aac</property>
  <property name="meta.media.1.codec.long_name">AAC (Advanced Audio Coding)</property>
  <property name="meta.media.1.codec.bit_rate">126979</property>
  <property name="meta.attr.1.stream.creation_time.markup">2014-11-28 13:16:40</property>
  <property name="meta.attr.major_brand.markup">MSNV</property>
  <property name="meta.attr.minor_version.markup">19595376</property>
  <property name="meta.attr.compatible_brands.markup">MSNVmp42isom</property>
  <property name="meta.attr.creation_time.markup">2014-11-28 13:16:40</property>
  <property name="seekable">1</property>
  <property name="meta.media.sample_aspect_num">1</property>
  <property name="meta.media.sample_aspect_den">1</property>
  <property name="aspect_ratio">1</property>
  <property name="audio_index">1</property>
  <property name="video_index">0</property>
  <property name="mlt_service">avformat</property>
  <property name="meta.media.frame_rate_num">25</property>
  <property name="meta.media.frame_rate_den">1</property>
  <property name="meta.media.colorspace">709</property>
  <property name="meta.media.color_trc">2</property>
  <property name="meta.media.width">1280</property>
  <property name="meta.media.height">720</property>
  <property name="meta.media.top_field_first">0</property>
  <property name="meta.media.progressive">1</property>
 </producer>
 <producer in="0" out="1050" id="10_1">
  <property name="mlt_type">producer</property>
  <property name="length">1051</property>
  <property name="eof">pause</property>
  <property name="resource">MAH04209.MP4</property>
  <property name="meta.media.nb_streams">2</property>
  <property name="meta.media.0.stream.type">video</property>
  <property name="meta.media.0.stream.frame_rate">25</property>
  <property name="meta.media.0.stream.sample_aspect_ratio">0</property>
  <property name="meta.media.0.codec.width">1280</property>
  <property name="meta.media.0.codec.height">720</property>
  <property name="meta.media.0.codec.frame_rate">25</property>
  <property name="meta.media.0.codec.pix_fmt">yuv420p</property>
  <property name="meta.media.0.codec.sample_aspect_ratio">1</property>
  <property name="meta.media.0.codec.colorspace">709</property>
  <property name="meta.media.0.codec.name">h264</property>
  <property name="meta.media.0.codec.long_name">H.264 / AVC / MPEG-4 AVC / MPEG-4 part 10</property>
  <property name="meta.media.0.codec.bit_rate">6015124</property>
  <property name="meta.attr.0.stream.creation_time.markup">2014-11-28 13:19:53</property>
  <property name="meta.attr.0.stream.encoder.markup">AVC Coding</property>
  <property name="meta.media.1.stream.type">audio</property>
  <property name="meta.media.1.codec.sample_fmt">fltp</property>
  <property name="meta.media.1.codec.sample_rate">48000</property>
  <property name="meta.media.1.codec.channels">2</property>
  <property name="meta.media.1.codec.name">aac</property>
  <property name="meta.media.1.codec.long_name">AAC (Advanced Audio Coding)</property>
  <property name="meta.media.1.codec.bit_rate">127628</property>
  <property name="meta.attr.1.stream.creation_time.markup">2014-11-28 13:19:53</property>
  <property name="meta.attr.major_brand.markup">MSNV</property>
  <property name="meta.attr.minor_version.markup">19595376</property>
  <property name="meta.attr.compatible_brands.markup">MSNVmp42isom</property>
  <property name="meta.attr.creation_time.markup">2014-11-28 13:19:53</property>
  <property name="seekable">1</property>
  <property name="meta.media.sample_aspect_num">1</property>
  <property name="meta.media.sample_aspect_den">1</property>
  <property name="aspect_ratio">1</property>
  <property name="audio_index">1</property>
  <property name="video_index">0</property>
  <property name="mlt_service">avformat</property>
  <property name="meta.media.frame_rate_num">25</property>
  <property name="meta.media.frame_rate_den">1</property>
  <property name="meta.media.colorspace">709</property>
  <property name="meta.media.color_trc">2</property>
  <property name="meta.media.width">1280</property>
  <property name="meta.media.height">720</property>
  <property name="meta.media.top_field_first">0</property>
  <property name="meta.media.progressive">1</property>
 </producer>
 <producer in="0" out="316" id="13_1">
  <property name="mlt_type">producer</property>
  <property name="length">317</property>
  <property name="eof">pause</property>
  <property name="resource">MAH04212.MP4</property>
  <property name="meta.media.nb_streams">2</property>
  <property name="meta.media.0.stream.type">video</property>
  <property name="meta.media.0.stream.frame_rate">25</property>
  <property name="meta.media.0.stream.sample_aspect_ratio">0</property>
  <property name="meta.media.0.codec.width">1280</property>
  <property name="meta.media.0.codec.height">720</property>
  <property name="meta.media.0.codec.frame_rate">25</property>
  <property name="meta.media.0.codec.pix_fmt">yuv420p</property>
  <property name="meta.media.0.codec.sample_aspect_ratio">1</property>
  <property name="meta.media.0.codec.colorspace">709</property>
  <property name="meta.media.0.codec.name">h264</property>
  <property name="meta.media.0.codec.long_name">H.264 / AVC / MPEG-4 AVC / MPEG-4 part 10</property>
  <property name="meta.media.0.codec.bit_rate">6074415</property>
  <property name="meta.attr.0.stream.creation_time.markup">2014-11-28 13:26:11</property>
  <property name="meta.attr.0.stream.encoder.markup">AVC Coding</property>
  <property name="meta.media.1.stream.type">audio</property>
  <property name="meta.media.1.codec.sample_fmt">fltp</property>
  <property name="meta.media.1.codec.sample_rate">48000</property>
  <property name="meta.media.1.codec.channels">2</property>
  <property name="meta.media.1.codec.name">aac</property>
  <property name="meta.media.1.codec.long_name">AAC (Advanced Audio Coding)</property>
  <property name="meta.media.1.codec.bit_rate">126879</property>
  <property name="meta.attr.1.stream.creation_time.markup">2014-11-28 13:26:11</property>
  <property name="meta.attr.major_brand.markup">MSNV</property>
  <property name="meta.attr.minor_version.markup">19595376</property>
  <property name="meta.attr.compatible_brands.markup">MSNVmp42isom</property>
  <property name="meta.attr.creation_time.markup">2014-11-28 13:26:11</property>
  <property name="seekable">1</property>
  <property name="meta.media.sample_aspect_num">1</property>
  <property name="meta.media.sample_aspect_den">1</property>
  <property name="aspect_ratio">1</property>
  <property name="audio_index">1</property>
  <property name="video_index">0</property>
  <property name="mlt_service">avformat</property>
  <property name="meta.media.frame_rate_num">25</property>
  <property name="meta.media.frame_rate_den">1</property>
  <property name="meta.media.colorspace">709</property>
  <property name="meta.media.color_trc">2</property>
  <property name="meta.media.width">1280</property>
  <property name="meta.media.height">720</property>
  <property name="meta.media.top_field_first">0</property>
  <property name="meta.media.progressive">1</property>
 </producer>
 <producer in="0" out="1237" id="14_1">
  <property name="mlt_type">producer</property>
  <property name="length">1238</property>
  <property name="eof">pause</property>
  <property name="resource">MAH04213.MP4</property>
  <property name="meta.media.nb_streams">2</property>
  <property name="meta.media.0.stream.type">video</property>
  <property name="meta.media.0.stream.frame_rate">25</property>
  <property name="meta.media.0.stream.sample_aspect_ratio">0</property>
  <property name="meta.media.0.codec.width">1280</property>
  <property name="meta.media.0.codec.height">720</property>
  <property name="meta.media.0.codec.frame_rate">25</property>
  <property name="meta.media.0.codec.pix_fmt">yuv420p</property>
  <property name="meta.media.0.codec.sample_aspect_ratio">1</property>
  <property name="meta.media.0.codec.colorspace">709</property>
  <property name="meta.media.0.codec.name">h264</property>
  <property name="meta.media.0.codec.long_name">H.264 / AVC / MPEG-4 AVC / MPEG-4 part 10</property>
  <property name="meta.media.0.codec.bit_rate">6011216</property>
  <property name="meta.attr.0.stream.creation_time.markup">2014-11-28 13:26:30</property>
  <property name="meta.attr.0.stream.encoder.markup">AVC Coding</property>
  <property name="meta.media.1.stream.type">audio</property>
  <property name="meta.media.1.codec.sample_fmt">fltp</property>
  <property name="meta.media.1.codec.sample_rate">48000</property>
  <property name="meta.media.1.codec.channels">2</property>
  <property name="meta.media.1.codec.name">aac</property>
  <property name="meta.media.1.codec.long_name">AAC (Advanced Audio Coding)</property>
  <property name="meta.media.1.codec.bit_rate">127686</property>
  <property name="meta.attr.1.stream.creation_time.markup">2014-11-28 13:26:30</property>
  <property name="meta.attr.major_brand.markup">MSNV</property>
  <property name="meta.attr.minor_version.markup">19595376</property>
  <property name="meta.attr.compatible_brands.markup">MSNVmp42isom</property>
  <property name="meta.attr.creation_time.markup">2014-11-28 13:26:30</property>
  <property name="seekable">1</property>
  <property name="meta.media.sample_aspect_num">1</property>
  <property name="meta.media.sample_aspect_den">1</property>
  <property name="aspect_ratio">1</property>
  <property name="audio_index">1</property>
  <property name="video_index">0</property>
  <property name="mlt_service">avformat</property>
  <property name="meta.media.frame_rate_num">25</property>
  <property name="meta.media.frame_rate_den">1</property>
  <property name="meta.media.colorspace">709</property>
  <property name="meta.media.color_trc">2</property>
  <property name="meta.media.width">1280</property>
  <property name="meta.media.height">720</property>
  <property name="meta.media.top_field_first">0</property>
  <property name="meta.media.progressive">1</property>
 </producer>
 <producer in="0" out="546" id="15_1">
  <property name="mlt_type">producer</property>
  <property name="length">547</property>
  <property name="eof">pause</property>
  <property name="resource">MAH04214.MP4</property>
  <property name="meta.media.nb_streams">2</property>
  <property name="meta.media.0.stream.type">video</property>
  <property name="meta.media.0.stream.frame_rate">25</property>
  <property name="meta.media.0.stream.sample_aspect_ratio">0</property>
  <property name="meta.media.0.codec.width">1280</property>
  <property name="meta.media.0.codec.height">720</property>
  <property name="meta.media.0.codec.frame_rate">25</property>
  <property name="meta.media.0.codec.pix_fmt">yuv420p</property>
  <property name="meta.media.0.codec.sample_aspect_ratio">1</property>
  <property name="meta.media.0.codec.colorspace">709</property>
  <property name="meta.media.0.codec.name">h264</property>
  <property name="meta.media.0.codec.long_name">H.264 / AVC / MPEG-4 AVC / MPEG-4 part 10</property>
  <property name="meta.media.0.codec.bit_rate">6036296</property>
  <property name="meta.attr.0.stream.creation_time.markup">2014-11-28 13:27:37</property>
  <property name="meta.attr.0.stream.encoder.markup">AVC Coding</property>
  <property name="meta.media.1.stream.type">audio</property>
  <property name="meta.media.1.codec.sample_fmt">fltp</property>
  <property name="meta.media.1.codec.sample_rate">48000</property>
  <property name="meta.media.1.codec.channels">2</property>
  <property name="meta.media.1.codec.name">aac</property>
  <property name="meta.media.1.codec.long_name">AAC (Advanced Audio Coding)</property>
  <property name="meta.media.1.codec.bit_rate">127317</property>
  <property name="meta.attr.1.stream.creation_time.markup">2014-11-28 13:27:37</property>
  <property name="meta.attr.major_brand.markup">MSNV</property>
  <property name="meta.attr.minor_version.markup">19595376</property>
  <property name="meta.attr.compatible_brands.markup">MSNVmp42isom</property>
  <property name="meta.attr.creation_time.markup">2014-11-28 13:27:37</property>
  <property name="seekable">1</property>
  <property name="meta.media.sample_aspect_num">1</property>
  <property name="meta.media.sample_aspect_den">1</property>
  <property name="aspect_ratio">1</property>
  <property name="audio_index">1</property>
  <property name="video_index">0</property>
  <property name="mlt_service">avformat</property>
  <property name="meta.media.frame_rate_num">25</property>
  <property name="meta.media.frame_rate_den">1</property>
  <property name="meta.media.colorspace">709</property>
  <property name="meta.media.color_trc">2</property>
  <property name="meta.media.width">1280</property>
  <property name="meta.media.height">720</property>
  <property name="meta.media.top_field_first">0</property>
  <property name="meta.media.progressive">1</property>
 </producer>
 <producer in="0" out="834" id="16_1">
  <property name="mlt_type">producer</property>
  <property name="length">835</property>
  <property name="eof">pause</property>
  <property name="resource">MAH04215.MP4</property>
  <property name="meta.media.nb_streams">2</property>
  <property name="meta.media.0.stream.type">video</property>
  <property name="meta.media.0.stream.frame_rate">25</property>
  <property name="meta.media.0.stream.sample_aspect_ratio">0</property>
  <property name="meta.media.0.codec.width">1280</property>
  <property name="meta.media.0.codec.height">720</property>
  <property name="meta.media.0.codec.frame_rate">25</property>
  <property name="meta.media.0.codec.pix_fmt">yuv420p</property>
  <property name="meta.media.0.codec.sample_aspect_ratio">1</property>
  <property name="meta.media.0.codec.colorspace">709</property>
  <property name="meta.media.0.codec.name">h264</property>
  <property name="meta.media.0.codec.long_name">H.264 / AVC / MPEG-4 AVC / MPEG-4 part 10</property>
  <property name="meta.media.0.codec.bit_rate">6043926</property>
  <property name="meta.attr.0.stream.creation_time.markup">2014-11-28 13:30:01</property>
  <property name="meta.attr.0.stream.encoder.markup">AVC Coding</property>
  <property name="meta.media.1.stream.type">audio</property>
  <property name="meta.media.1.codec.sample_fmt">fltp</property>
  <property name="meta.media.1.codec.sample_rate">48000</property>
  <property name="meta.media.1.codec.channels">2</property>
  <property name="meta.media.1.codec.name">aac</property>
  <property name="meta.media.1.codec.long_name">AAC (Advanced Audio Coding)</property>
  <property name="meta.media.1.codec.bit_rate">127591</property>
  <property name="meta.attr.1.stream.creation_time.markup">2014-11-28 13:30:01</property>
  <property name="meta.attr.major_brand.markup">MSNV</property>
  <property name="meta.attr.minor_version.markup">19595376</property>
  <property name="meta.attr.compatible_brands.markup">MSNVmp42isom</property>
  <property name="meta.attr.creation_time.markup">2014-11-28 13:30:01</property>
  <property name="seekable">1</property>
  <property name="meta.media.sample_aspect_num">1</property>
  <property name="meta.media.sample_aspect_den">1</property>
  <property name="aspect_ratio">1</property>
  <property name="audio_index">1</property>
  <property name="video_index">0</property>
  <property name="mlt_service">avformat</property>
  <property name="meta.media.frame_rate_num">25</property>
  <property name="meta.media.frame_rate_den">1</property>
  <property name="meta.media.colorspace">709</property>
  <property name="meta.media.color_trc">2</property>
  <property name="meta.media.width">1280</property>
  <property name="meta.media.height">720</property>
  <property name="meta.media.top_field_first">0</property>
  <property name="meta.media.progressive">1</property>
 </producer>
 <producer in="0" out="149" id="21">
  <property name="mlt_type">producer</property>
  <property name="length">150</property>
  <property name="eof">pause</property>
  <property name="resource">/media/pablitar/Datos/WISIT2014/Sobre Impresos/00 - Intro - Final.png</property>
  <property name="ttl">25</property>
  <property name="aspect_ratio">1</property>
  <property name="progressive">1</property>
  <property name="seekable">1</property>
  <property name="loop">1</property>
  <property name="meta.media.width">6400</property>
  <property name="meta.media.height">3600</property>
  <property name="mlt_service">pixbuf</property>
 </producer>
 <playlist id="playlist0">
  <blank length="313"/>
  <entry in="0" out="360" producer="20"/>
  <blank length="6872"/>
  <entry in="0" out="258" producer="5_1"/>
  <blank length="12323"/>
  <entry in="278" out="964" producer="6_1"/>
  <blank length="5103"/>
  <entry in="324" out="1482" producer="7_1"/>
  <blank length="6863"/>
  <entry in="0" out="273" producer="8_1"/>
  <blank length="4232"/>
  <entry in="0" out="152" producer="9_1"/>
  <blank length="5425"/>
  <entry in="357" out="1050" producer="10_1"/>
  <blank length="10278"/>
  <entry in="0" out="316" producer="13_1"/>
  <blank length="257"/>
  <entry in="0" out="375" producer="14_1"/>
  <blank length="1637"/>
  <entry in="0" out="546" producer="15_1"/>
  <blank length="3772"/>
  <entry in="0" out="798" producer="16_1"/>
  <blank length="254"/>
  <entry in="0" out="149" producer="21">
   <filter out="75" id="fade_from_black">
    <property name="track">0</property>
    <property name="start">0</property>
    <property name="mlt_type">filter</property>
    <property name="mlt_service">brightness</property>
    <property name="kdenlive_id">fade_from_black</property>
    <property name="tag">brightness</property>
    <property name="kdenlive_ix">1</property>
    <property name="end">1</property>
   </filter>
  </entry>
 </playlist>
 <producer in="0" out="269" id="19">
  <property name="mlt_type">producer</property>
  <property name="length">270</property>
  <property name="eof">pause</property>
  <property name="resource">CIAA_title.png</property>
  <property name="ttl">25</property>
  <property name="aspect_ratio">1</property>
  <property name="progressive">1</property>
  <property name="seekable">1</property>
  <property name="loop">1</property>
  <property name="meta.media.width">1920</property>
  <property name="meta.media.height">1080</property>
  <property name="mlt_service">pixbuf</property>
 </producer>
 <playlist id="playlist6">
  <entry in="0" out="269" producer="19"/>
 </playlist>
 <tractor title="Anonymous Submission" global_feed="1" in="0" out="63104" id="maintractor">
  <property name="meta.volume">1</property>
  <track producer="black_track"/>
  <track hide="video" producer="playlist1"/>
  <track hide="video" producer="playlist2"/>
  <track producer="playlist3"/>
  <track producer="playlist4"/>
  <track producer="playlist5"/>
  <track hide="audio" producer="playlist0"/>
  <track producer="playlist6"/>
  <transition id="transition0">
   <property name="a_track">1</property>
   <property name="b_track">2</property>
   <property name="mlt_type">transition</property>
   <property name="mlt_service">mix</property>
   <property name="always_active">1</property>
   <property name="combine">1</property>
   <property name="internal_added">237</property>
  </transition>
  <transition id="transition1">
   <property name="a_track">1</property>
   <property name="b_track">3</property>
   <property name="mlt_type">transition</property>
   <property name="mlt_service">mix</property>
   <property name="always_active">1</property>
   <property name="combine">1</property>
   <property name="internal_added">237</property>
  </transition>
  <transition id="transition2">
   <property name="a_track">1</property>
   <property name="b_track">4</property>
   <property name="mlt_type">transition</property>
   <property name="mlt_service">mix</property>
   <property name="always_active">1</property>
   <property name="combine">1</property>
   <property name="internal_added">237</property>
  </transition>
  <transition id="transition3">
   <property name="a_track">1</property>
   <property name="b_track">5</property>
   <property name="mlt_type">transition</property>
   <property name="mlt_service">mix</property>
   <property name="always_active">1</property>
   <property name="combine">1</property>
   <property name="internal_added">237</property>
  </transition>
  <transition id="transition4">
   <property name="a_track">1</property>
   <property name="b_track">6</property>
   <property name="mlt_type">transition</property>
   <property name="mlt_service">mix</property>
   <property name="always_active">1</property>
   <property name="internal_added">237</property>
   <property name="combine">1</property>
  </transition>
  <transition id="transition5">
   <property name="a_track">1</property>
   <property name="b_track">7</property>
   <property name="mlt_type">transition</property>
   <property name="mlt_service">mix</property>
   <property name="always_active">1</property>
   <property name="internal_added">237</property>
   <property name="combine">1</property>
  </transition>
  <transition in="7546" out="7804" id="transition6">
   <property name="a_track">5</property>
   <property name="b_track">6</property>
   <property name="start">0/0:100%x100%</property>
   <property name="factory">loader</property>
   <property name="aligned">1</property>
   <property name="progressive">1</property>
   <property name="mlt_type">transition</property>
   <property name="mlt_service">composite</property>
   <property name="automatic">1</property>
   <property name="kdenlive_id">composite</property>
   <property name="force_track">0</property>
   <property name="deinterlace">0</property>
   <property name="distort">0</property>
   <property name="fill">1</property>
   <property name="geometry">0/0:1280x720:0;30=0/0:1280x720:100;228=0/0:1280x720:100;258=0/0:1280x720:0</property>
   <property name="luma_invert">0</property>
   <property name="operator">over</property>
   <property name="softness">0</property>
   <property name="luma"/>
  </transition>
  <transition in="313" out="673" id="transition7">
   <property name="a_track">5</property>
   <property name="b_track">6</property>
   <property name="start">0/0:100%x100%</property>
   <property name="factory">loader</property>
   <property name="aligned">1</property>
   <property name="progressive">1</property>
   <property name="mlt_type">transition</property>
   <property name="mlt_service">composite</property>
   <property name="automatic">1</property>
   <property name="kdenlive_id">composite</property>
   <property name="force_track">0</property>
   <property name="deinterlace">0</property>
   <property name="distort">0</property>
   <property name="fill">1</property>
   <property name="geometry">0/0:1280x720:0;60=0/0:1280x720:100</property>
   <property name="luma_invert">0</property>
   <property name="operator">over</property>
   <property name="softness">0</property>
   <property name="luma"/>
  </transition>
  <transition in="25918" out="27076" id="transition8">
   <property name="a_track">5</property>
   <property name="b_track">6</property>
   <property name="start">0/0:100%x100%</property>
   <property name="factory">loader</property>
   <property name="aligned">1</property>
   <property name="progressive">1</property>
   <property name="mlt_type">transition</property>
   <property name="mlt_service">composite</property>
   <property name="automatic">1</property>
   <property name="kdenlive_id">composite</property>
   <property name="force_track">0</property>
   <property name="deinterlace">0</property>
   <property name="distort">0</property>
   <property name="fill">1</property>
   <property name="geometry">0/0:1280x720:100;984=0/0:1280x720:100;1044=0/0:1280x720:0</property>
   <property name="luma_invert">0</property>
   <property name="operator">over</property>
   <property name="softness">0</property>
   <property name="luma"/>
  </transition>
  <transition in="33940" out="34213" id="transition9">
   <property name="a_track">5</property>
   <property name="b_track">6</property>
   <property name="start">0/0:100%x100%</property>
   <property name="factory">loader</property>
   <property name="aligned">1</property>
   <property name="progressive">1</property>
   <property name="mlt_type">transition</property>
   <property name="mlt_service">composite</property>
   <property name="automatic">1</property>
   <property name="kdenlive_id">composite</property>
   <property name="force_track">0</property>
   <property name="deinterlace">0</property>
   <property name="distort">0</property>
   <property name="fill">1</property>
   <property name="geometry">0/0:1280x720:0;30=0/0:1280x720:100</property>
   <property name="luma_invert">0</property>
   <property name="operator">over</property>
   <property name="softness">0</property>
   <property name="luma"/>
  </transition>
  <transition in="38446" out="38598" id="transition10">
   <property name="a_track">5</property>
   <property name="b_track">6</property>
   <property name="start">0/0:100%x100%</property>
   <property name="factory">loader</property>
   <property name="aligned">1</property>
   <property name="progressive">1</property>
   <property name="mlt_type">transition</property>
   <property name="mlt_service">composite</property>
   <property name="automatic">1</property>
   <property name="kdenlive_id">composite</property>
   <property name="force_track">0</property>
   <property name="deinterlace">0</property>
   <property name="distort">0</property>
   <property name="fill">1</property>
   <property name="geometry">0/0:1280x720:100;122=0/0:1280x720:100;152=0/0:1280x720:0</property>
   <property name="luma_invert">0</property>
   <property name="operator">over</property>
   <property name="softness">0</property>
   <property name="luma"/>
  </transition>
  <transition in="44024" out="44717" id="transition11">
   <property name="a_track">5</property>
   <property name="b_track">6</property>
   <property name="start">0/0:100%x100%</property>
   <property name="factory">loader</property>
   <property name="aligned">1</property>
   <property name="progressive">1</property>
   <property name="mlt_type">transition</property>
   <property name="mlt_service">composite</property>
   <property name="automatic">1</property>
   <property name="kdenlive_id">composite</property>
   <property name="force_track">0</property>
   <property name="deinterlace">0</property>
   <property name="distort">0</property>
   <property name="fill">1</property>
   <property name="geometry">0%/0%:100%x100%:100</property>
   <property name="luma_invert">0</property>
   <property name="operator">over</property>
   <property name="softness">0</property>
  </transition>
  <transition in="54996" out="55312" id="transition12">
   <property name="a_track">5</property>
   <property name="b_track">6</property>
   <property name="start">0/0:100%x100%</property>
   <property name="factory">loader</property>
   <property name="aligned">1</property>
   <property name="progressive">1</property>
   <property name="mlt_type">transition</property>
   <property name="mlt_service">composite</property>
   <property name="automatic">1</property>
   <property name="kdenlive_id">composite</property>
   <property name="force_track">0</property>
   <property name="deinterlace">0</property>
   <property name="distort">0</property>
   <property name="fill">1</property>
   <property name="geometry">0/0:1280x720:0;30=0/0:1280x720:100;286=0/0:1280x720:100;316=0/0:1280x720:0</property>
   <property name="luma_invert">0</property>
   <property name="operator">over</property>
   <property name="softness">0</property>
   <property name="luma"/>
  </transition>
  <transition in="55570" out="55945" id="transition13">
   <property name="a_track">5</property>
   <property name="b_track">6</property>
   <property name="start">0/0:100%x100%</property>
   <property name="factory">loader</property>
   <property name="aligned">1</property>
   <property name="progressive">1</property>
   <property name="mlt_type">transition</property>
   <property name="mlt_service">composite</property>
   <property name="automatic">1</property>
   <property name="kdenlive_id">composite</property>
   <property name="force_track">0</property>
   <property name="deinterlace">0</property>
   <property name="distort">0</property>
   <property name="fill">1</property>
   <property name="geometry">0/0:1280x720:0;30=0/0:1280x720:100;345=0/0:1280x720:100;375=0/0:1280x720:0</property>
   <property name="luma_invert">0</property>
   <property name="operator">over</property>
   <property name="softness">0</property>
   <property name="luma"/>
  </transition>
  <transition in="57583" out="58129" id="transition14">
   <property name="a_track">5</property>
   <property name="b_track">6</property>
   <property name="start">0/0:100%x100%</property>
   <property name="factory">loader</property>
   <property name="aligned">1</property>
   <property name="progressive">1</property>
   <property name="mlt_type">transition</property>
   <property name="mlt_service">composite</property>
   <property name="automatic">1</property>
   <property name="kdenlive_id">composite</property>
   <property name="force_track">0</property>
   <property name="deinterlace">0</property>
   <property name="distort">0</property>
   <property name="fill">1</property>
   <property name="geometry">0/0:1280x720:0;30=0/0:1280x720:100;516=0/0:1280x720:100;546=0/0:1280x720:0</property>
   <property name="luma_invert">0</property>
   <property name="operator">over</property>
   <property name="softness">0</property>
   <property name="luma"/>
  </transition>
  <transition in="61902" out="62700" id="transition15">
   <property name="a_track">5</property>
   <property name="b_track">6</property>
   <property name="start">0/0:100%x100%</property>
   <property name="factory">loader</property>
   <property name="aligned">1</property>
   <property name="progressive">1</property>
   <property name="mlt_type">transition</property>
   <property name="mlt_service">composite</property>
   <property name="automatic">1</property>
   <property name="kdenlive_id">composite</property>
   <property name="force_track">0</property>
   <property name="deinterlace">0</property>
   <property name="distort">0</property>
   <property name="fill">1</property>
   <property name="geometry">0/0:1280x720:0;30=0/0:1280x720:100;768=0/0:1280x720:100;798=0/0:1280x720:0</property>
   <property name="luma_invert">0</property>
   <property name="operator">over</property>
   <property name="softness">0</property>
   <property name="luma"/>
  </transition>
  <transition in="205" out="62954" id="transition16">
   <property name="a_track">4</property>
   <property name="b_track">5</property>
   <property name="start">0/0:100%x100%</property>
   <property name="factory">loader</property>
   <property name="aligned">1</property>
   <property name="progressive">1</property>
   <property name="mlt_type">transition</property>
   <property name="mlt_service">composite</property>
   <property name="automatic">1</property>
   <property name="kdenlive_id">composite</property>
   <property name="force_track">0</property>
   <property name="deinterlace">0</property>
   <property name="distort">0</property>
   <property name="fill">1</property>
   <property name="geometry">0%/0%:100%x100%:100</property>
   <property name="luma_invert">0</property>
   <property name="operator">over</property>
   <property name="softness">0</property>
  </transition>
  <transition in="20128" out="20814" id="transition17">
   <property name="a_track">4</property>
   <property name="b_track">6</property>
   <property name="start">0/0:100%x100%</property>
   <property name="factory">loader</property>
   <property name="aligned">1</property>
   <property name="progressive">1</property>
   <property name="mlt_type">transition</property>
   <property name="mlt_service">composite</property>
   <property name="automatic">1</property>
   <property name="kdenlive_id">composite</property>
   <property name="force_track">1</property>
   <property name="deinterlace">0</property>
   <property name="distort">0</property>
   <property name="fill">1</property>
   <property name="geometry">0/0:1280x720:100;656=0/0:1280x720:100;686=0/0:1280x720:0</property>
   <property name="luma_invert">0</property>
   <property name="operator">over</property>
   <property name="softness">0</property>
   <property name="luma"/>
  </transition>
  <transition in="205" out="269" id="transition18">
   <property name="a_track">4</property>
   <property name="b_track">7</property>
   <property name="start">0/0:100%x100%</property>
   <property name="factory">loader</property>
   <property name="aligned">1</property>
   <property name="progressive">1</property>
   <property name="mlt_type">transition</property>
   <property name="mlt_service">composite</property>
   <property name="automatic">1</property>
   <property name="kdenlive_id">composite</property>
   <property name="force_track">1</property>
   <property name="deinterlace">0</property>
   <property name="distort">0</property>
   <property name="fill">1</property>
   <property name="geometry">0/0:1280x720:100;64=0/0:1280x720:0</property>
   <property name="luma_invert">0</property>
   <property name="operator">over</property>
   <property name="softness">0</property>
   <property name="luma"/>
  </transition>
  <transition in="215" out="60904" id="transition19">
   <property name="a_track">3</property>
   <property name="b_track">4</property>
   <property name="start">0/0:100%x100%</property>
   <property name="factory">loader</property>
   <property name="aligned">1</property>
   <property name="progressive">1</property>
   <property name="mlt_type">transition</property>
   <property name="mlt_service">composite</property>
   <property name="automatic">1</property>
   <property name="kdenlive_id">composite</property>
   <property name="force_track">0</property>
   <property name="deinterlace">0</property>
   <property name="distort">0</property>
   <property name="fill">1</property>
   <property name="geometry">0/0:1280x720:100;254=0/0:1280x720:100;314=0/0:1280x720:0;710=0/0:1280x720:0;770=0/0:1280x720:100;1739=0/0:1280x720:100;1799=0/0:1280x720:0;2279=0/0:1280x720:0;2339=0/0:1280x720:100;3176=0/0:1280x720:100;3236=0/0:1280x720:0;3986=0/0:1280x720:0;4046=0/0:1280x720:100;5191=0/0:1280x720:100;5251=0/0:1280x720:0;5701=0/0:1280x720:0;5761=0/0:1280x720:100;6061=0/0:1280x720:100;6121=0/0:1280x720:0;6677=0/0:1280x720:0;6737=0/0:1280x720:100;8225=0/0:1280x720:100;8285=0/0:1280x720:0;9005=0/0:1280x720:0;9065=0/0:1280x720:100;10248=0/0:1280x720:100;10308=0/0:1280x720:0;10908=0/0:1280x720:0;10968=0/0:1280x720:100;12153=0/0:1280x720:100;12213=0/0:1280x720:0;12879=0/0:1280x720:0;12939=0/0:1280x720:100;13500=0/0:1280x720:100;13560=0/0:1280x720:0;13860=0/0:1280x720:0;13920=0/0:1280x720:100;14221=0/0:1280x720:100;14281=0/0:1280x720:0;15031=0/0:1280x720:0;15091=0/0:1280x720:100;16141=0/0:1280x720:100;16201=0/0:1280x720:0;16591=0/0:1280x720:0;16651=0/0:1280x720:100;16951=0/0:1280x720:100;17011=0/0:1280x720:0;17401=0/0:1280x720:0;17461=0/0:1280x720:100;17848=0/0:1280x720:100;17908=0/0:1280x720:0;18388=0/0:1280x720:0;18448=0/0:1280x720:100;18808=0/0:1280x720:100;18868=0/0:1280x720:0;19318=0/0:1280x720:0;19378=0/0:1280x720:100;19839=0/0:1280x720:100;19899=0/0:1280x720:0;20199=0/0:1280x720:0;20259=0/0:1280x720:100;21017=0/0:1280x720:100;21077=0/0:1280x720:0;21372=0/0:1280x720:0;21432=0/0:1280x720:100;22267=0/0:1280x720:100;22327=0/0:1280x720:0;22627=0/0:1280x720:0;22687=0/0:1280x720:100;24350=0/0:1280x720:100;24410=0/0:1280x720:0;24860=0/0:1280x720:0;24920=0/0:1280x720:100;25639=0/0:1280x720:100;25699=0/0:1280x720:0;26089=0/0:1280x720:0;26149=0/0:1280x720:100;28569=0/0:1280x720:100;28629=0/0:1280x720:0;29049=0/0:1280x720:0;29109=0/0:1280x720:100;29880=0/0:1280x720:100;29940=0/0:1280x720:0;30390=0/0:1280x720:0;30450=0/0:1280x720:100;31819=0/0:1280x720:100;31879=0/0:1280x720:0;32592=0/0:1280x720:0;32652=0/0:1280x720:100;33922=0/0:1280x720:100;33982=0/0:1280x720:0;34582=0/0:1280x720:0;34642=0/0:1280x720:100;35732=0/0:1280x720:100;35792=0/0:1280x720:0;36392=0/0:1280x720:0;36452=0/0:1280x720:100;36767=0/0:1280x720:100;36827=0/0:1280x720:0;37127=0/0:1280x720:0;37187=0/0:1280x720:100;37586=0/0:1280x720:100;37646=0/0:1280x720:0;38231=0/0:1280x720:0;38291=0/0:1280x720:100;38888=0/0:1280x720:100;38948=0/0:1280x720:0;39733=0/0:1280x720:0;39793=0/0:1280x720:100;40328=0/0:1280x720:100;40388=0/0:1280x720:0;40718=0/0:1280x720:0;40778=0/0:1280x720:100;41245=0/0:1280x720:100;41305=0/0:1280x720:0;41905=0/0:1280x720:0;41965=0/0:1280x720:100;42235=0/0:1280x720:100;42295=0/0:1280x720:0;42595=0/0:1280x720:0;42655=0/0:1280x720:100;42975=0/0:1280x720:100;43035=0/0:1280x720:0;43804=0/0:1280x720:0;43864=0/0:1280x720:100;44316=0/0:1280x720:100;44376=0/0:1280x720:0;45163=0/0:1280x720:0;45223=0/0:1280x720:100;45556=0/0:1280x720:100;45616=0/0:1280x720:0;46036=0/0:1280x720:0;46096=0/0:1280x720:100;46322=0/0:1280x720:100;46382=0/0:1280x720:0;46978=0/0:1280x720:0;47038=0/0:1280x720:100;47354=0/0:1280x720:100;47414=0/0:1280x720:0;48571=0/0:1280x720:0;49111=0/0:1280x720:0;49171=0/0:1280x720:100;50082=0/0:1280x720:100;50142=0/0:1280x720:0;51029=0/0:1280x720:0;51089=0/0:1280x720:100;51726=0/0:1280x720:100;51786=0/0:1280x720:0;52206=0/0:1280x720:0;52266=0/0:1280x720:100;53263=0/0:1280x720:100;53323=0/0:1280x720:0;53713=0/0:1280x720:0;53773=0/0:1280x720:100</property>
   <property name="luma_invert">0</property>
   <property name="operator">over</property>
   <property name="softness">0</property>
   <property name="luma"/>
  </transition>
 </tractor>
 <kdenlivedoc profile="atsc_720p_30" kdenliveversion="0.9.10" version="0.88" projectfolder="/home/pablitar/kdenlive">
  <customeffects/>
  <documentproperties documentid="1417789695816" renderaudiobitrate="160" renderdestination="" renderrescalewidth="320" proxyextension="ts" generateproxy="0" proxyimageminsize="2000" rendertctype="0" verticalzoom="1" renderprofile="H.264/AAC High Profile" renderrescaleheight="240" zonein="0" renderrescale="0" renderscanning="0" renderurl="/media/pablitar/Datos/WISIT2014/03 - CIAA/03 - CIAA_render.MP4" rendertwopass="0" renderplay="0" position="61850" proxyminsize="1000" renderstartguide="-1" zoom="9" rendercategory="MP4" renderratio="0" zoneout="100" renderbitrate="20" renderzone="0" renderendguide="-1" renderexportaudio="0" proxyparams="-f mpegts -acodec libmp3lame -ac 2 -ab 128k -vcodec mpeg2video -g 5 -s 640x480 -qscale 7" enableproxy="0" generateimageproxy="0" renderguide="0" rendertcoverlay="0"/>
  <documentmetadata/>
  <documentnotes>&lt;!DOCTYPE HTML PUBLIC "-//W3C//DTD HTML 4.0//EN" "http://www.w3.org/TR/REC-html40/strict.dtd">
&lt;html>&lt;head>&lt;meta name="qrichtext" content="1" />&lt;style type="text/css">
p, li { white-space: pre-wrap; }
&lt;/style>&lt;/head>&lt;body style=" font-family:'Ubuntu'; font-size:10pt; font-weight:400; font-style:normal;">
&lt;p style="-qt-paragraph-type:empty; margin-top:0px; margin-bottom:0px; margin-left:0px; margin-right:0px; -qt-block-indent:0; text-indent:0px;">&lt;br />&lt;/p>&lt;/body>&lt;/html></documentnotes>
  <profileinfo width="1280" display_aspect_den="9" frame_rate_den="1" description="HD 720p 30 fps" height="720" frame_rate_num="30" display_aspect_num="16" progressive="1" sample_aspect_num="1" sample_aspect_den="1"/>
  <tracksinfo>
   <trackinfo blind="1" mute="0" locked="0" trackname="Audio 2" type="audio"/>
   <trackinfo blind="1" mute="0" locked="0" trackname="Audio 1" type="audio"/>
   <trackinfo blind="0" mute="0" locked="0" trackname="Video 5"/>
   <trackinfo blind="0" mute="0" locked="0" trackname="Video 4"/>
   <trackinfo blind="0" mute="0" locked="0" trackname="Video 3"/>
   <trackinfo blind="0" mute="1" locked="0" trackname="Video 2"/>
   <trackinfo blind="0" mute="0" locked="0" trackname="Video 1"/>
  </tracksinfo>
  <kdenlive_producer audio_max="57" id="1" pix_fmt="yuv420p" default_video="0" fps="29.97" analysisdata="" name="03 - CIAA.MP4" videocodecid="h264" colorspace="709" videocodec="H.264 / AVC / MPEG-4 AVC / MPEG-4 part 10" resource="/media/pablitar/Datos/WISIT2014/03 - CIAA/03 - CIAA.MP4" default_audio="1" audiocodec="AAC (Advanced Audio Coding)" duration="63634" file_hash="7c4b01c0bb631caf3d2c3775415dad05" aspect_ratio="1" channels="2" frequency="48000" video_max="0" progressive="1" type="3" frame_size="1280x720" file_size="1623168723">
   <metaproperty tool="" name="meta.attr.0.stream.creation_time">2014-11-28 15:54:14</metaproperty>
   <metaproperty tool="" name="meta.attr.0.stream.encoder">AVC Coding</metaproperty>
   <metaproperty tool="" name="meta.attr.1.stream.creation_time">2014-11-28 15:54:14</metaproperty>
   <metaproperty tool="" name="meta.attr.compatible_brands">MSNVmp42isom</metaproperty>
   <metaproperty tool="" name="meta.attr.creation_time">2014-11-28 15:54:14</metaproperty>
   <metaproperty tool="" name="meta.attr.major_brand">MSNV</metaproperty>
   <metaproperty tool="" name="meta.attr.minor_version">22675568</metaproperty>
  </kdenlive_producer>
  <kdenlive_producer audio_max="63" audiocodec="Vorbis" channels="2" duration="66047" frame_size="1280x720" frequency="44100" analysisdata="" file_size="31931790" aspect_ratio="0" file_hash="a77ffde7ee074b684ae75ad6048121b5" type="1" id="2" name="CIAA.ogg" resource="/media/pablitar/Datos/WISIT2014/03 - CIAA/CIAA.ogg">
   <metaproperty tool="" name="meta.attr.0.stream.ARTIST">WISIT</metaproperty>
   <metaproperty tool="" name="meta.attr.0.stream.DATE">2014</metaproperty>
  </kdenlive_producer>
  <kdenlive_producer audio_max="0" id="3" pix_fmt="yuv420p" default_video="0" fps="60" analysisdata="" name="CIAA_screen.mp4" videocodecid="h264" colorspace="601" videocodec="H.264 / AVC / MPEG-4 AVC / MPEG-4 part 10" resource="/media/pablitar/Datos/WISIT2014/03 - CIAA/CIAA_screen.mp4" default_audio="-1" duration="62027" file_hash="24b885c47ce621959b883fe6c7bf8200" aspect_ratio="1" video_max="0" progressive="1" type="2" frame_size="800x600" file_size="294600559">
   <metaproperty tool="" name="meta.attr.0.stream.language">eng</metaproperty>
   <metaproperty tool="" name="meta.attr.compatible_brands">qt  </metaproperty>
   <metaproperty tool="" name="meta.attr.major_brand">isom</metaproperty>
   <metaproperty tool="" name="meta.attr.minor_version">512</metaproperty>
  </kdenlive_producer>
  <kdenlive_producer audio_max="52" id="4" pix_fmt="yuv420p" default_video="0" fps="25" analysisdata="" name="MAH04203.MP4" videocodecid="h264" colorspace="709" videocodec="H.264 / AVC / MPEG-4 AVC / MPEG-4 part 10" resource="/media/pablitar/Datos/WISIT2014/03 - CIAA/MAH04203.MP4" default_audio="1" audiocodec="AAC (Advanced Audio Coding)" duration="490" file_hash="44a24bc30aa8709460e47c3a08336f0c" aspect_ratio="1" channels="2" frequency="48000" video_max="0" progressive="1" type="3" frame_size="1280x720" file_size="12606378">
   <metaproperty tool="" name="meta.attr.0.stream.creation_time">2014-11-28 12:59:18</metaproperty>
   <metaproperty tool="" name="meta.attr.0.stream.encoder">AVC Coding</metaproperty>
   <metaproperty tool="" name="meta.attr.1.stream.creation_time">2014-11-28 12:59:18</metaproperty>
   <metaproperty tool="" name="meta.attr.compatible_brands">MSNVmp42isom</metaproperty>
   <metaproperty tool="" name="meta.attr.creation_time">2014-11-28 12:59:18</metaproperty>
   <metaproperty tool="" name="meta.attr.major_brand">MSNV</metaproperty>
   <metaproperty tool="" name="meta.attr.minor_version">19595376</metaproperty>
  </kdenlive_producer>
  <kdenlive_producer audio_max="50" id="5" pix_fmt="yuv420p" default_video="0" fps="25" analysisdata="" name="MAH04204.MP4" videocodecid="h264" colorspace="709" videocodec="H.264 / AVC / MPEG-4 AVC / MPEG-4 part 10" resource="/media/pablitar/Datos/WISIT2014/03 - CIAA/MAH04204.MP4" default_audio="1" audiocodec="AAC (Advanced Audio Coding)" duration="259" file_hash="be1c55b0178da5789d0ec93dc4d89650" aspect_ratio="1" channels="2" frequency="48000" video_max="0" progressive="1" type="3" frame_size="1280x720" file_size="6721011">
   <metaproperty tool="" name="meta.attr.0.stream.creation_time">2014-11-28 12:59:47</metaproperty>
   <metaproperty tool="" name="meta.attr.0.stream.encoder">AVC Coding</metaproperty>
   <metaproperty tool="" name="meta.attr.1.stream.creation_time">2014-11-28 12:59:47</metaproperty>
   <metaproperty tool="" name="meta.attr.compatible_brands">MSNVmp42isom</metaproperty>
   <metaproperty tool="" name="meta.attr.creation_time">2014-11-28 12:59:47</metaproperty>
   <metaproperty tool="" name="meta.attr.major_brand">MSNV</metaproperty>
   <metaproperty tool="" name="meta.attr.minor_version">19595376</metaproperty>
  </kdenlive_producer>
  <kdenlive_producer audio_max="51" id="6" pix_fmt="yuv420p" default_video="0" fps="25" analysisdata="" name="MAH04205.MP4" videocodecid="h264" colorspace="709" videocodec="H.264 / AVC / MPEG-4 AVC / MPEG-4 part 10" resource="/media/pablitar/Datos/WISIT2014/03 - CIAA/MAH04205.MP4" default_audio="1" audiocodec="AAC (Advanced Audio Coding)" duration="965" file_hash="be47b0726db4259a7b40ed6a190e37d8" aspect_ratio="1" channels="2" frequency="48000" video_max="0" progressive="1" type="3" frame_size="1280x720" file_size="24690118">
   <metaproperty tool="" name="meta.attr.0.stream.creation_time">2014-11-28 13:06:39</metaproperty>
   <metaproperty tool="" name="meta.attr.0.stream.encoder">AVC Coding</metaproperty>
   <metaproperty tool="" name="meta.attr.1.stream.creation_time">2014-11-28 13:06:39</metaproperty>
   <metaproperty tool="" name="meta.attr.compatible_brands">MSNVmp42isom</metaproperty>
   <metaproperty tool="" name="meta.attr.creation_time">2014-11-28 13:06:39</metaproperty>
   <metaproperty tool="" name="meta.attr.major_brand">MSNV</metaproperty>
   <metaproperty tool="" name="meta.attr.minor_version">19595376</metaproperty>
  </kdenlive_producer>
  <kdenlive_producer audio_max="53" id="7" pix_fmt="yuv420p" default_video="0" fps="25" analysisdata="" name="MAH04206.MP4" videocodecid="h264" colorspace="709" videocodec="H.264 / AVC / MPEG-4 AVC / MPEG-4 part 10" resource="/media/pablitar/Datos/WISIT2014/03 - CIAA/MAH04206.MP4" default_audio="1" audiocodec="AAC (Advanced Audio Coding)" duration="1483" file_hash="7d828bead90e49faaa40501ca32022ed" aspect_ratio="1" channels="2" frequency="48000" video_max="0" progressive="1" type="3" frame_size="1280x720" file_size="37953641">
   <metaproperty tool="" name="meta.attr.0.stream.creation_time">2014-11-28 13:09:51</metaproperty>
   <metaproperty tool="" name="meta.attr.0.stream.encoder">AVC Coding</metaproperty>
   <metaproperty tool="" name="meta.attr.1.stream.creation_time">2014-11-28 13:09:51</metaproperty>
   <metaproperty tool="" name="meta.attr.compatible_brands">MSNVmp42isom</metaproperty>
   <metaproperty tool="" name="meta.attr.creation_time">2014-11-28 13:09:51</metaproperty>
   <metaproperty tool="" name="meta.attr.major_brand">MSNV</metaproperty>
   <metaproperty tool="" name="meta.attr.minor_version">19595376</metaproperty>
  </kdenlive_producer>
  <kdenlive_producer audio_max="52" id="8" pix_fmt="yuv420p" default_video="0" fps="25" analysisdata="" name="MAH04207.MP4" videocodecid="h264" colorspace="709" videocodec="H.264 / AVC / MPEG-4 AVC / MPEG-4 part 10" resource="/media/pablitar/Datos/WISIT2014/03 - CIAA/MAH04207.MP4" default_audio="1" audiocodec="AAC (Advanced Audio Coding)" duration="274" file_hash="819cd70cb4ec63fbc23542854d9afc9c" aspect_ratio="1" channels="2" frequency="48000" video_max="0" progressive="1" type="3" frame_size="1280x720" file_size="7058061">
   <metaproperty tool="" name="meta.attr.0.stream.creation_time">2014-11-28 13:14:29</metaproperty>
   <metaproperty tool="" name="meta.attr.0.stream.encoder">AVC Coding</metaproperty>
   <metaproperty tool="" name="meta.attr.1.stream.creation_time">2014-11-28 13:14:29</metaproperty>
   <metaproperty tool="" name="meta.attr.compatible_brands">MSNVmp42isom</metaproperty>
   <metaproperty tool="" name="meta.attr.creation_time">2014-11-28 13:14:29</metaproperty>
   <metaproperty tool="" name="meta.attr.major_brand">MSNV</metaproperty>
   <metaproperty tool="" name="meta.attr.minor_version">19595376</metaproperty>
  </kdenlive_producer>
  <kdenlive_producer audio_max="52" id="9" pix_fmt="yuv420p" default_video="0" fps="25" analysisdata="" name="MAH04208.MP4" videocodecid="h264" colorspace="709" videocodec="H.264 / AVC / MPEG-4 AVC / MPEG-4 part 10" resource="/media/pablitar/Datos/WISIT2014/03 - CIAA/MAH04208.MP4" default_audio="1" audiocodec="AAC (Advanced Audio Coding)" duration="331" file_hash="935404dae77e9cc3518176c1e8014879" aspect_ratio="1" channels="2" frequency="48000" video_max="0" progressive="1" type="3" frame_size="1280x720" file_size="8505867">
   <metaproperty tool="" name="meta.attr.0.stream.creation_time">2014-11-28 13:16:40</metaproperty>
   <metaproperty tool="" name="meta.attr.0.stream.encoder">AVC Coding</metaproperty>
   <metaproperty tool="" name="meta.attr.1.stream.creation_time">2014-11-28 13:16:40</metaproperty>
   <metaproperty tool="" name="meta.attr.compatible_brands">MSNVmp42isom</metaproperty>
   <metaproperty tool="" name="meta.attr.creation_time">2014-11-28 13:16:40</metaproperty>
   <metaproperty tool="" name="meta.attr.major_brand">MSNV</metaproperty>
   <metaproperty tool="" name="meta.attr.minor_version">19595376</metaproperty>
  </kdenlive_producer>
  <kdenlive_producer audio_max="55" id="10" pix_fmt="yuv420p" default_video="0" fps="25" analysisdata="" name="MAH04209.MP4" videocodecid="h264" colorspace="709" videocodec="H.264 / AVC / MPEG-4 AVC / MPEG-4 part 10" resource="/media/pablitar/Datos/WISIT2014/03 - CIAA/MAH04209.MP4" default_audio="1" audiocodec="AAC (Advanced Audio Coding)" duration="1051" file_hash="45ef4c2085360000519bfe6953f207e0" aspect_ratio="1" channels="2" frequency="48000" video_max="0" progressive="1" type="3" frame_size="1280x720" file_size="26918418">
   <metaproperty tool="" name="meta.attr.0.stream.creation_time">2014-11-28 13:19:53</metaproperty>
   <metaproperty tool="" name="meta.attr.0.stream.encoder">AVC Coding</metaproperty>
   <metaproperty tool="" name="meta.attr.1.stream.creation_time">2014-11-28 13:19:53</metaproperty>
   <metaproperty tool="" name="meta.attr.compatible_brands">MSNVmp42isom</metaproperty>
   <metaproperty tool="" name="meta.attr.creation_time">2014-11-28 13:19:53</metaproperty>
   <metaproperty tool="" name="meta.attr.major_brand">MSNV</metaproperty>
   <metaproperty tool="" name="meta.attr.minor_version">19595376</metaproperty>
  </kdenlive_producer>
  <kdenlive_producer audio_max="49" id="11" pix_fmt="yuv420p" default_video="0" fps="25" analysisdata="" name="MAH04210.MP4" videocodecid="h264" colorspace="709" videocodec="H.264 / AVC / MPEG-4 AVC / MPEG-4 part 10" resource="/media/pablitar/Datos/WISIT2014/03 - CIAA/MAH04210.MP4" default_audio="1" audiocodec="AAC (Advanced Audio Coding)" duration="490" file_hash="518b1d36d9091f5fb16699f36e88a833" aspect_ratio="1" channels="2" frequency="48000" video_max="0" progressive="1" type="3" frame_size="1280x720" file_size="12548228">
   <metaproperty tool="" name="meta.attr.0.stream.creation_time">2014-11-28 13:20:35</metaproperty>
   <metaproperty tool="" name="meta.attr.0.stream.encoder">AVC Coding</metaproperty>
   <metaproperty tool="" name="meta.attr.1.stream.creation_time">2014-11-28 13:20:35</metaproperty>
   <metaproperty tool="" name="meta.attr.compatible_brands">MSNVmp42isom</metaproperty>
   <metaproperty tool="" name="meta.attr.creation_time">2014-11-28 13:20:35</metaproperty>
   <metaproperty tool="" name="meta.attr.major_brand">MSNV</metaproperty>
   <metaproperty tool="" name="meta.attr.minor_version">19595376</metaproperty>
  </kdenlive_producer>
  <kdenlive_producer audio_max="49" id="12" pix_fmt="yuv420p" default_video="0" fps="25" analysisdata="" name="MAH04211.MP4" videocodecid="h264" colorspace="709" videocodec="H.264 / AVC / MPEG-4 AVC / MPEG-4 part 10" resource="/media/pablitar/Datos/WISIT2014/03 - CIAA/MAH04211.MP4" default_audio="1" audiocodec="AAC (Advanced Audio Coding)" duration="446" file_hash="b95cbe2d540982f07e4026505a7b2e70" aspect_ratio="1" channels="2" frequency="48000" video_max="0" progressive="1" type="3" frame_size="1280x720" file_size="11486540">
   <metaproperty tool="" name="meta.attr.0.stream.creation_time">2014-11-28 13:23:54</metaproperty>
   <metaproperty tool="" name="meta.attr.0.stream.encoder">AVC Coding</metaproperty>
   <metaproperty tool="" name="meta.attr.1.stream.creation_time">2014-11-28 13:23:54</metaproperty>
   <metaproperty tool="" name="meta.attr.compatible_brands">MSNVmp42isom</metaproperty>
   <metaproperty tool="" name="meta.attr.creation_time">2014-11-28 13:23:54</metaproperty>
   <metaproperty tool="" name="meta.attr.major_brand">MSNV</metaproperty>
   <metaproperty tool="" name="meta.attr.minor_version">19595376</metaproperty>
  </kdenlive_producer>
  <kdenlive_producer audio_max="52" id="13" pix_fmt="yuv420p" default_video="0" fps="25" analysisdata="" name="MAH04212.MP4" videocodecid="h264" colorspace="709" videocodec="H.264 / AVC / MPEG-4 AVC / MPEG-4 part 10" resource="/media/pablitar/Datos/WISIT2014/03 - CIAA/MAH04212.MP4" default_audio="1" audiocodec="AAC (Advanced Audio Coding)" duration="317" file_hash="189bec6fc508a21c5f5a2632abf0cecf" aspect_ratio="1" channels="2" frequency="48000" video_max="0" progressive="1" type="3" frame_size="1280x720" file_size="8190881">
   <metaproperty tool="" name="meta.attr.0.stream.creation_time">2014-11-28 13:26:11</metaproperty>
   <metaproperty tool="" name="meta.attr.0.stream.encoder">AVC Coding</metaproperty>
   <metaproperty tool="" name="meta.attr.1.stream.creation_time">2014-11-28 13:26:11</metaproperty>
   <metaproperty tool="" name="meta.attr.compatible_brands">MSNVmp42isom</metaproperty>
   <metaproperty tool="" name="meta.attr.creation_time">2014-11-28 13:26:11</metaproperty>
   <metaproperty tool="" name="meta.attr.major_brand">MSNV</metaproperty>
   <metaproperty tool="" name="meta.attr.minor_version">19595376</metaproperty>
  </kdenlive_producer>
  <kdenlive_producer audio_max="51" id="14" pix_fmt="yuv420p" default_video="0" fps="25" analysisdata="" name="MAH04213.MP4" videocodecid="h264" colorspace="709" videocodec="H.264 / AVC / MPEG-4 AVC / MPEG-4 part 10" resource="/media/pablitar/Datos/WISIT2014/03 - CIAA/MAH04213.MP4" default_audio="1" audiocodec="AAC (Advanced Audio Coding)" duration="1238" file_hash="accd2748ff628876b0283cadcd1538d4" aspect_ratio="1" channels="2" frequency="48000" video_max="0" progressive="1" type="3" frame_size="1280x720" file_size="31692152">
   <metaproperty tool="" name="meta.attr.0.stream.creation_time">2014-11-28 13:26:30</metaproperty>
   <metaproperty tool="" name="meta.attr.0.stream.encoder">AVC Coding</metaproperty>
   <metaproperty tool="" name="meta.attr.1.stream.creation_time">2014-11-28 13:26:30</metaproperty>
   <metaproperty tool="" name="meta.attr.compatible_brands">MSNVmp42isom</metaproperty>
   <metaproperty tool="" name="meta.attr.creation_time">2014-11-28 13:26:30</metaproperty>
   <metaproperty tool="" name="meta.attr.major_brand">MSNV</metaproperty>
   <metaproperty tool="" name="meta.attr.minor_version">19595376</metaproperty>
  </kdenlive_producer>
  <kdenlive_producer audio_max="53" id="15" pix_fmt="yuv420p" default_video="0" fps="25" analysisdata="" name="MAH04214.MP4" videocodecid="h264" colorspace="709" videocodec="H.264 / AVC / MPEG-4 AVC / MPEG-4 part 10" resource="/media/pablitar/Datos/WISIT2014/03 - CIAA/MAH04214.MP4" default_audio="1" audiocodec="AAC (Advanced Audio Coding)" duration="547" file_hash="181ca669a32366b804c29b09259d5376" aspect_ratio="1" channels="2" frequency="48000" video_max="0" progressive="1" type="3" frame_size="1280x720" file_size="14060770">
   <metaproperty tool="" name="meta.attr.0.stream.creation_time">2014-11-28 13:27:37</metaproperty>
   <metaproperty tool="" name="meta.attr.0.stream.encoder">AVC Coding</metaproperty>
   <metaproperty tool="" name="meta.attr.1.stream.creation_time">2014-11-28 13:27:37</metaproperty>
   <metaproperty tool="" name="meta.attr.compatible_brands">MSNVmp42isom</metaproperty>
   <metaproperty tool="" name="meta.attr.creation_time">2014-11-28 13:27:37</metaproperty>
   <metaproperty tool="" name="meta.attr.major_brand">MSNV</metaproperty>
   <metaproperty tool="" name="meta.attr.minor_version">19595376</metaproperty>
  </kdenlive_producer>
  <kdenlive_producer audio_max="59" id="16" pix_fmt="yuv420p" default_video="0" fps="25" analysisdata="" name="MAH04215.MP4" videocodecid="h264" colorspace="709" videocodec="H.264 / AVC / MPEG-4 AVC / MPEG-4 part 10" resource="/media/pablitar/Datos/WISIT2014/03 - CIAA/MAH04215.MP4" default_audio="1" audiocodec="AAC (Advanced Audio Coding)" duration="835" file_hash="e2534ff9230d748eded7fa84cd1b61bc" aspect_ratio="1" channels="2" frequency="48000" video_max="0" progressive="1" type="3" frame_size="1280x720" file_size="21487812">
   <metaproperty tool="" name="meta.attr.0.stream.creation_time">2014-11-28 13:30:01</metaproperty>
   <metaproperty tool="" name="meta.attr.0.stream.encoder">AVC Coding</metaproperty>
   <metaproperty tool="" name="meta.attr.1.stream.creation_time">2014-11-28 13:30:01</metaproperty>
   <metaproperty tool="" name="meta.attr.compatible_brands">MSNVmp42isom</metaproperty>
   <metaproperty tool="" name="meta.attr.creation_time">2014-11-28 13:30:01</metaproperty>
   <metaproperty tool="" name="meta.attr.major_brand">MSNV</metaproperty>
   <metaproperty tool="" name="meta.attr.minor_version">19595376</metaproperty>
  </kdenlive_producer>
  <kdenlive_producer duration="150" frame_size="1280x720" thumbnail="100" in="0" analysisdata="" aspect_ratio="1" mlt_service="colour" out="149" type="4" colour="0x000000ff" id="17" name="Color Clip"/>
  <kdenlive_producer duration="150" frame_size="1920x1080" thumbnail="100" in="0" analysisdata="" file_size="39754" aspect_ratio="1" out="149" file_hash="1fa2098408fbdb6179f6aedcad954c3b" type="5" id="18" name="logo-uqbar-semitransparente.png" resource="/media/pablitar/Datos/WISIT2014/Sobre Impresos/logo-uqbar-semitransparente.png"/>
  <kdenlive_producer duration="150" frame_size="1920x1080" in="0" analysisdata="" file_size="485512" aspect_ratio="1" out="149" file_hash="5c882f689b2a92f2e48fea730dda6f62" type="5" id="19" name="CIAA_title.png" resource="/media/pablitar/Datos/WISIT2014/03 - CIAA/CIAA_title.png"/>
  <kdenlive_producer duration="150" frame_size="1920x1080" in="0" analysisdata="" file_size="31902" aspect_ratio="1" out="149" file_hash="a55f55cc2c8c475d4a9aa54e090ee571" type="5" id="20" name="03 - CIAA.png" resource="/media/pablitar/Datos/WISIT2014/Sobre Impresos/03 - CIAA.png"/>
  <kdenlive_producer duration="150" frame_size="6400x3600" in="0" analysisdata="" file_size="1756950" aspect_ratio="1" out="149" file_hash="890760de12818a5a695649a9514923ff" type="5" id="21" name="00 - Intro - Final.png" resource="/media/pablitar/Datos/WISIT2014/Sobre Impresos/00 - Intro - Final.png"/>
  <markers/>
  <groups/>
 </kdenlivedoc>
</mlt>
